<?xml version="1.0" encoding="UTF-8"?>
<svg version="1.1" xmlns="http://www.w3.org/2000/svg" width="512" height="512">
<path d="M0 0 C17.05756009 10.58129661 27.34685414 36.3976733 32 55 C37.61795167 79.53209759 37.61795167 79.53209759 37 89 C35.625 91 35.625 91 34 92 C33.34 92 32.68 92 32 92 C32.33 95.3 32.66 98.6 33 102 C34.32 102.33 35.64 102.66 37 103 C39 105 39 105 39.1953125 107.8203125 C39.16050781 109.45613281 39.16050781 109.45613281 39.125 111.125 C39.10695313 112.22070312 39.08890625 113.31640625 39.0703125 114.4453125 C39.03550781 115.70988281 39.03550781 115.70988281 39 117 C37.35 117.66 35.7 118.32 34 119 C34 119.99 34 120.98 34 122 C34.804375 122.28875 35.60875 122.5775 36.4375 122.875 C39 124 39 124 40 126 C40.15498497 127.9772101 40.25012521 129.95923901 40.31640625 131.94140625 C40.35830078 133.16666016 40.40019531 134.39191406 40.44335938 135.65429688 C40.48267578 136.94400391 40.52199219 138.23371094 40.5625 139.5625 C40.60568359 140.79419922 40.64886719 142.02589844 40.69335938 143.29492188 C40.97808244 152.0219099 41.05092205 160.73827698 41.00912476 169.46841431 C40.99895794 172.28911024 41.00001327 175.10970654 41.0012207 177.93041992 C40.99945842 183.42502063 40.95956348 188.91855564 40.90234375 194.4128418 C40.88404308 196.68817114 40.87664035 198.96361304 40.87988281 201.23901367 C40.90221846 227.21723734 40.90221846 227.21723734 32.05566406 237.19238281 C25.58156653 243.67348316 18.02267189 246.19663468 9 246.5 C2.57826079 246.31831859 -2.28872816 244.79944273 -8 242 C-9.66211425 241.3220631 -11.32771845 240.65245431 -13 240 C-13.75023437 241.07636719 -14.50046875 242.15273437 -15.2734375 243.26171875 C-26.84414224 259.80053894 -39.10284653 275.54189065 -52.70285892 290.46795845 C-54.13101131 292.04215048 -55.55185089 293.62304919 -56.96113491 295.2141552 C-63.20152955 302.24803816 -69.74914679 308.93762332 -76.36938477 315.60986328 C-77.58938594 316.84270887 -78.80924053 318.07569952 -80.02896118 319.30882263 C-91.07072849 330.46552708 -102.14145739 341.59368553 -113.21861362 352.71524239 C-121.39526826 360.92524175 -129.55839068 369.14822644 -137.70444828 377.38858807 C-143.45044249 383.1988376 -149.21161129 388.99376278 -154.98420566 394.77758396 C-158.42625769 398.22719584 -161.86116332 401.68328789 -165.27975655 405.15616226 C-168.4891181 408.41589702 -171.71681214 411.65627842 -174.95959854 414.88275337 C-176.14529537 416.0690544 -177.32416518 417.26222469 -178.49555397 418.46265602 C-180.09681246 420.10151767 -181.72091566 421.71376998 -183.3530426 423.32180786 C-184.25577188 424.23061266 -185.15850115 425.13941746 -186.08858585 426.0757618 C-190.04504405 428.69069998 -192.3166845 428.21170091 -197 428 C-201.12021208 430.64560986 -204.18904598 433.9997962 -207 438 C-207.61353385 440.91672044 -207.31688831 442.98956103 -207 446 C-208.98889066 448.35720375 -210.25100486 448.85872219 -213.24760437 449.4239502 C-217.39251572 448.78551146 -219.54422026 446.11174656 -222.35083008 443.21679688 C-223.2736377 442.29508446 -223.2736377 442.29508446 -224.21508789 441.35475159 C-226.24531166 439.32104482 -228.25725428 437.27020333 -230.26953125 435.21875 C-231.67376781 433.80518796 -233.07911248 432.39272592 -234.48551941 430.98132324 C-238.18407821 427.26367432 -241.86737732 423.53125536 -245.54772949 419.79559326 C-249.30594543 415.98622929 -253.07835659 412.19098141 -256.84960938 408.39453125 C-264.24705891 400.94345836 -271.62846917 393.47670962 -279 386 C-283.30411197 388.06628264 -285.2465257 390.06646528 -288 394 C-287.67156616 396.06381575 -287.67156616 396.06381575 -287 398 C-288.90621903 401.72464991 -291.26746492 404.52326096 -294.20375061 407.47790527 C-295.06008087 408.34421066 -295.91641113 409.21051605 -296.7986908 410.10307312 C-297.7446693 411.0499473 -298.69076389 411.99670553 -299.63696289 412.94335938 C-300.63633746 413.95036101 -301.63530989 414.95776188 -302.63391113 415.9655304 C-305.34215147 418.69567227 -308.05689602 421.4192537 -310.77356267 424.14100838 C-312.47338497 425.84448029 -314.17190314 427.54924175 -315.86999321 429.25444031 C-321.80238915 435.21131851 -327.74047402 441.16246425 -333.68334961 447.10888672 C-339.20909906 452.63826742 -344.72159035 458.180628 -350.22816092 463.72910261 C-354.96677201 468.50249543 -359.71504627 473.26613321 -364.47073168 478.02251482 C-367.30622223 480.85879569 -370.13765366 483.69885217 -372.95921516 486.54899597 C-375.61660833 489.23270399 -378.2859028 491.90399485 -380.96445465 494.56657982 C-382.40221726 496.00168429 -383.82767811 497.4490811 -385.25260925 498.89692688 C-395.08198222 508.61675314 -403.76433585 512.29083542 -417.42944336 512.31689453 C-427.18767479 512.14859543 -434.85506532 508.65218056 -442 502 C-449.21344902 494.25222142 -453.12913723 484.60539538 -453 474 C-451.8554554 459.75450739 -444.64689624 450.90893541 -434.78393555 441.21630859 C-433.63928039 440.07306632 -432.49573009 438.92871693 -431.35319519 437.78335571 C-428.26963893 434.69837331 -425.17098611 431.62898021 -422.06925559 428.5622859 C-418.82247606 425.34690409 -415.58998531 422.11722041 -412.35591125 418.8890686 C-406.23910304 412.78775949 -400.1096695 406.69930118 -393.97552377 400.61542857 C-386.98860263 393.68452346 -380.01598656 386.73930214 -373.04449785 379.79287982 C-358.71212096 365.51267197 -344.36199705 351.25041366 -330 337 C-331.22007944 334.3094472 -331.22007944 334.3094472 -333 332 C-333.51132908 328.12791793 -333.34521205 326.48189705 -331.04174805 323.26638794 C-330.12433838 322.3381723 -329.20692871 321.40995667 -328.26171875 320.45361328 C-327.75762985 319.93579788 -327.25354095 319.41798248 -326.73417664 318.88447571 C-325.06702138 317.18078214 -323.37868978 315.50012668 -321.6875 313.8203125 C-320.51765623 312.64134438 -319.34855864 311.46163542 -318.18017578 310.28121948 C-315.72855274 307.81173354 -313.26589983 305.35392654 -310.79541016 302.90332031 C-307.63508537 299.76596493 -304.50756334 296.59805136 -301.38807678 293.42015266 C-298.98112015 290.97644855 -296.55575169 288.55169289 -294.12466431 286.13201523 C-292.96391805 284.97157519 -291.80934247 283.80492787 -290.66122437 282.63199234 C-289.0504874 280.99139117 -287.41617426 279.37849435 -285.7734375 277.77001953 C-284.38777588 276.38485641 -284.38777588 276.38485641 -282.97412109 274.97171021 C-278.96486358 272.31375052 -276.74317964 272.76022027 -272 273 C-269.16666667 271.41666667 -269.16666667 271.41666667 -267 269 C-266.236875 268.2575 -265.47375 267.515 -264.6875 266.75 C-262.61563936 264.02955131 -262.61563936 264.02955131 -263.49900913 260.49567413 C-263.56026538 256.14373292 -261.88683668 254.19557925 -259.02150631 251.0175705 C-257.14159613 249.09477332 -255.2476301 247.20128592 -253.32835388 245.31921387 C-252.27569045 244.25804756 -251.2247784 243.19514152 -250.17547375 242.13065386 C-247.28802437 239.21172577 -244.37613277 236.31830692 -241.45960796 233.42846966 C-238.31826023 230.30726162 -235.20000786 227.16312597 -232.07875061 224.02185059 C-225.96108566 217.87244421 -219.82203421 211.74482572 -213.67518234 205.62460846 C-208.68086834 200.65108298 -203.69458984 195.66963238 -198.71397591 190.68238831 C-198.00550449 189.97297975 -197.29703307 189.26357119 -196.56709282 188.5326654 C-195.12795974 187.09154684 -193.68884794 185.65040704 -192.24975718 184.20924622 C-178.75041731 170.69226073 -165.22704375 157.19952978 -151.69509358 143.71520144 C-140.07985527 132.13979662 -128.48426317 120.54501673 -116.90307617 108.93554688 C-103.45937061 95.45904054 -90.00453405 81.99381973 -76.53105599 68.54707384 C-75.09493765 67.11375559 -73.65883043 65.68042621 -72.22273445 64.24708557 C-71.51610721 63.54183324 -70.80947996 62.83658092 -70.08143977 62.10995731 C-65.09807352 57.13479389 -60.12269867 52.15172338 -55.15026665 47.16563416 C-49.09219642 41.09143412 -43.02174415 35.02994299 -36.93504309 28.98442787 C-33.82867021 25.89846665 -30.72818649 22.80714069 -27.64254379 19.70043945 C-24.81910969 16.85806688 -21.98010124 14.03230067 -19.12764908 11.21905857 C-18.09720936 10.19715099 -17.0726563 9.16926701 -16.05461746 8.13500494 C-14.67234326 6.73248023 -13.26639913 5.35340115 -11.85938168 3.97570038 C-11.08437248 3.20236972 -10.30936329 2.42903907 -9.51086897 1.63227415 C-6.16619494 -0.5420428 -3.91411846 -0.40753351 0 0 Z " fill="#B2B2B2" transform="translate(462,0)"/>
<path d="M0 0 C17.05756009 10.58129661 27.34685414 36.3976733 32 55 C37.61795167 79.53209759 37.61795167 79.53209759 37 89 C35.625 91 35.625 91 34 92 C33.34 92 32.68 92 32 92 C32.33 95.3 32.66 98.6 33 102 C34.32 102.33 35.64 102.66 37 103 C39 105 39 105 39.1953125 107.8203125 C39.16050781 109.45613281 39.16050781 109.45613281 39.125 111.125 C39.10695313 112.22070312 39.08890625 113.31640625 39.0703125 114.4453125 C39.03550781 115.70988281 39.03550781 115.70988281 39 117 C37.35 117.66 35.7 118.32 34 119 C34 119.99 34 120.98 34 122 C34.804375 122.28875 35.60875 122.5775 36.4375 122.875 C39 124 39 124 40 126 C40.15498497 127.9772101 40.25012521 129.95923901 40.31640625 131.94140625 C40.35830078 133.16666016 40.40019531 134.39191406 40.44335938 135.65429688 C40.48267578 136.94400391 40.52199219 138.23371094 40.5625 139.5625 C40.60568359 140.79419922 40.64886719 142.02589844 40.69335938 143.29492188 C40.97808244 152.0219099 41.05092205 160.73827698 41.00912476 169.46841431 C40.99895794 172.28911024 41.00001327 175.10970654 41.0012207 177.93041992 C40.99945842 183.42502063 40.95956348 188.91855564 40.90234375 194.4128418 C40.88404308 196.68817114 40.87664035 198.96361304 40.87988281 201.23901367 C40.90221846 227.21723734 40.90221846 227.21723734 32.05566406 237.19238281 C25.58156653 243.67348316 18.02267189 246.19663468 9 246.5 C2.57826079 246.31831859 -2.28872816 244.79944273 -8 242 C-9.66211425 241.3220631 -11.32771845 240.65245431 -13 240 C-13.75023437 241.07636719 -14.50046875 242.15273437 -15.2734375 243.26171875 C-26.84412654 259.80051651 -39.10269386 275.54210034 -52.70292091 290.46795845 C-54.13095944 292.04206746 -55.55160917 293.6229535 -56.96057701 295.2141552 C-63.20308998 302.2519234 -69.75742133 308.93925286 -76.38525391 315.60986328 C-77.60688677 316.84269958 -78.82836362 318.07569051 -80.04969788 319.30882263 C-84.02132796 323.31662326 -87.99828791 327.31910851 -91.9765625 331.3203125 C-92.99497514 332.34464394 -92.99497514 332.34464394 -94.03396177 333.38966894 C-100.44278896 339.83484093 -106.85408943 346.27754551 -113.2704258 352.71524239 C-121.45439796 360.92687802 -129.62646854 369.1499872 -137.78329718 377.38858807 C-143.5361067 383.19710525 -149.30219181 388.99223011 -155.07829416 394.77758396 C-158.5229016 398.22845109 -161.96131082 401.68501052 -165.3854866 405.15616226 C-168.59945214 408.41368803 -171.82949197 411.6543547 -175.07270622 414.88275337 C-176.25955095 416.06992744 -177.44041189 417.26311841 -178.61475945 418.46265602 C-180.21856546 420.0990348 -181.84250154 421.71239028 -183.47329712 423.32180786 C-184.37694818 424.23061266 -185.28059925 425.13941746 -186.21163368 426.0757618 C-189.73890378 428.50991395 -191.79974526 428.61460523 -196 428 C-198.34969087 424.47546369 -198.54880597 423.15082477 -198 419 C-196.08299923 416.34750557 -196.08299923 416.34750557 -193.33958435 413.62478638 C-192.83816282 413.11894386 -192.33674129 412.61310135 -191.82012516 412.09193027 C-190.13675979 410.40102564 -188.43286703 408.73246833 -186.72827148 407.06298828 C-185.51667468 405.85472134 -184.30640455 404.64512282 -183.09736633 403.43429565 C-179.80853796 400.14801942 -176.50160027 396.88052195 -173.19131351 393.61588144 C-169.72688884 390.19270886 -166.27985637 386.75211643 -162.83106995 383.3132019 C-156.28855622 376.7945183 -149.73133412 370.29084712 -143.16835123 363.79277885 C-133.55575636 354.2739666 -123.96511772 344.73307424 -114.37470341 335.19192314 C-112.95611317 333.78068222 -111.537516 332.36944826 -110.11891174 330.95822144 C-109.42584382 330.26870325 -108.73277589 329.57918506 -108.0187059 328.86877239 C-103.91193353 324.78403084 -99.80090063 320.70363891 -95.68593872 316.62714791 C-93.11774517 314.08246004 -90.55150117 311.53581154 -87.98553276 308.98888016 C-86.80096373 307.81411448 -85.61548225 306.640268 -84.42898941 305.46744537 C-78.91137251 300.01292848 -73.43275145 294.57152779 -68.40983677 288.6485424 C-66.45891892 286.36730612 -64.39017236 284.20663467 -62.32226562 282.03198242 C-55.92716869 275.29230496 -50.06703286 268.28454641 -44.44628906 260.89208984 C-42.89311502 258.86016905 -41.31912015 256.84556034 -39.7421875 254.83203125 C-34.52563567 248.1452502 -29.38633858 241.39573029 -24.625 234.375 C-23.89539063 233.31023437 -23.16578125 232.24546875 -22.4140625 231.1484375 C-20.64194686 227.20278776 -21.31416371 225.22831061 -22 221 C-22.1281277 218.69436187 -22.22092465 216.38653241 -22.28125 214.078125 C-22.33732422 212.16966797 -22.33732422 212.16966797 -22.39453125 210.22265625 C-22.44754618 208.22576042 -22.5005472 206.22886393 -22.55224609 204.23193359 C-22.60402589 202.28472821 -22.66130915 200.33767161 -22.71875 198.390625 C-22.74904297 197.23594727 -22.77933594 196.08126953 -22.81054688 194.89160156 C-22.88172982 191.93226392 -22.88172982 191.93226392 -24 189 C-26.6833015 188.10556617 -28.30440821 187.867705 -31.0625 187.82421875 C-44.61231465 187.47116506 -54.10089581 186.08418285 -64.7109375 177 C-72.44287318 166.86667815 -72.7262373 156.46062655 -72.59375 144.30859375 C-72.59203536 142.62899359 -72.59210817 140.94939076 -72.59387207 139.26979065 C-72.5922301 135.77586756 -72.57372513 132.28259494 -72.54199219 128.78881836 C-72.50203939 124.3097 -72.49798572 119.83141973 -72.50545502 115.35215664 C-72.50851971 111.89576016 -72.49642673 108.43955252 -72.47932434 104.98320198 C-72.47229795 103.33057907 -72.46916937 101.6779348 -72.47001648 100.02529716 C-72.46822225 97.72537049 -72.44688329 95.42646016 -72.41992188 93.12670898 C-72.41150269 91.81943344 -72.4030835 90.5121579 -72.39440918 89.16526794 C-72 86 -72 86 -70.70031738 84.04286194 C-69 83 -69 83 -65.375 83.1875 C-64.26125 83.455625 -63.1475 83.72375 -62 84 C-60.5472683 86.90546341 -60.8672068 89.44802735 -60.8581543 92.69360352 C-60.85467987 93.38169601 -60.85120544 94.06978851 -60.84762573 94.7787323 C-60.8402656 96.27597302 -60.83492159 97.77322468 -60.83133507 99.2704792 C-60.82416551 101.64654978 -60.80849239 104.02241433 -60.78999329 106.39842224 C-60.73756845 113.15531469 -60.6896166 119.91209832 -60.67407227 126.66918945 C-60.66394166 130.80199084 -60.63448301 134.93427937 -60.59275246 139.06687737 C-60.58050228 140.63636314 -60.57531019 142.20592159 -60.57755089 143.77545357 C-60.5883159 153.78366855 -60.20606759 161.93114932 -53.5625 169.9375 C-50.06736997 172.75065344 -47.49477939 174 -43 174 C-43.763125 173.175 -44.52625 172.35 -45.3125 171.5 C-50.87881507 165.48236209 -51.44505687 157.94986732 -51.43237305 150.1875 C-51.44766052 148.76660316 -51.44766052 148.76660316 -51.46325684 147.31700134 C-51.49325529 144.21127303 -51.50263271 141.10585383 -51.51171875 138 C-51.52857517 135.8366596 -51.5467267 133.67332894 -51.56611633 131.51000977 C-51.61351771 125.83509361 -51.64339094 120.16021696 -51.66955566 114.48516846 C-51.69941092 108.68664758 -51.74592421 102.88826262 -51.79101562 97.08984375 C-51.87693658 85.72663374 -51.94433175 74.36339568 -52 63 C-52.42514755 63.42742587 -52.8502951 63.85485174 -53.28832591 64.29522991 C-78.47315602 89.61425943 -103.67358005 114.91766441 -128.89442662 140.2008186 C-131.92110568 143.23500211 -134.94765383 146.26931617 -137.97412109 149.30371094 C-138.87791658 150.20986721 -138.87791658 150.20986721 -139.79997055 151.13432968 C-149.56229754 160.9227814 -159.31397571 170.72177634 -169.06177564 180.52469242 C-179.06035572 190.57933478 -189.07025738 200.62260016 -199.09081209 210.65534306 C-205.27623994 216.84901336 -211.45261233 223.05144067 -217.61778025 229.26527905 C-221.84338931 233.52254603 -226.07992142 237.76873512 -230.32528956 242.00629783 C-232.77623694 244.45339312 -235.22199586 246.9051545 -237.65493393 249.37016678 C-240.29295809 252.037888 -242.94866696 254.68663047 -245.60977173 257.33129883 C-246.37826624 258.11727038 -247.14676074 258.90324194 -247.93854296 259.71303082 C-253.16069908 264.84800683 -253.16069908 264.84800683 -257.33688927 265.60429382 C-260 265 -260 265 -263 263 C-263.51583727 259.0719444 -263.55280575 256.84976229 -261.36657518 253.48913103 C-260.59270245 252.71412184 -259.81882973 251.93911265 -259.02150631 251.14061832 C-258.13407393 250.23493172 -257.24664156 249.32924511 -256.33231729 248.39611346 C-255.33131304 247.41024325 -254.32998 246.42470679 -253.32835388 245.43946838 C-252.27590456 244.37895398 -251.22498618 243.31691845 -250.17547375 242.25349754 C-247.28583456 239.33459397 -244.37471258 236.43797659 -241.45960796 233.54453528 C-238.3200775 230.42081854 -235.20072884 227.27705983 -232.07875061 224.13581848 C-225.95907403 217.98498319 -219.82058287 211.85326186 -213.67518234 205.72813869 C-208.68192521 200.75067759 -203.69552703 195.76644156 -198.71397591 190.77726555 C-198.00550449 190.0677215 -197.29703307 189.35817745 -196.56709282 188.62713207 C-195.12796526 187.18576647 -193.68885343 185.74438515 -192.24975718 184.30298828 C-178.74825599 170.78151681 -165.22536523 157.28160102 -151.69509358 143.78892725 C-140.08100337 132.20611221 -128.48538929 120.60506622 -116.90307617 108.99047852 C-103.45931849 95.50927693 -90.00429915 82.03948268 -76.53105599 68.58774418 C-75.09493412 67.1538522 -73.65882688 65.71994556 -72.22273445 64.28602409 C-71.16279359 63.22770312 -71.16279359 63.22770312 -70.08143977 62.14800193 C-65.09790159 57.17051273 -60.12254278 52.18493639 -55.15026665 47.19619942 C-49.09210096 41.11841999 -43.02166 35.05323285 -36.93504309 29.00394107 C-33.82865279 25.91597295 -30.72817006 22.82262617 -27.64254379 19.71389771 C-24.81910976 16.86964509 -21.98009953 14.04198911 -19.12764908 11.22684585 C-18.09720373 10.20423691 -17.07265057 9.17565003 -16.05461746 8.14068372 C-14.67235222 6.73719939 -13.26640405 5.35715735 -11.85938168 3.97849369 C-10.69686788 2.8176846 -10.69686788 2.8176846 -9.51086897 1.63342482 C-6.16619918 -0.54242216 -3.91486313 -0.40781448 0 0 Z " fill="#CC113A" transform="translate(462,0)"/>
<path d="M0 0 C4.73888037 0.48888037 4.73888037 0.48888037 6.0625 1.8125 C6.18453873 3.77872149 6.2422849 5.74899115 6.2734375 7.71875 C6.30179688 8.93820313 6.33015625 10.15765625 6.359375 11.4140625 C6.4108294 13.98163693 6.45527832 16.5493628 6.4921875 19.1171875 C6.65499678 25.58885648 7.15600415 30.95973643 9.46777344 37.00952148 C10.34227572 39.66067064 10.09837504 41.24022206 9.0625 43.8125 C7.3828125 46.65234375 7.3828125 46.65234375 5.1875 49.75 C4.78966309 50.31138672 4.39182617 50.87277344 3.98193359 51.45117188 C-6.79970688 66.50462583 -18.81817042 80.62150626 -31.41900253 94.1713829 C-32.82903565 95.69527709 -34.22653827 97.23073946 -35.62295532 98.76712036 C-45.97954372 110.10328574 -56.94285173 120.82950869 -67.87377465 131.60546839 C-72.30171429 135.97076677 -76.72127447 140.34440872 -81.13589478 144.72317505 C-81.78207052 145.36406063 -82.42824626 146.00494621 -83.09400308 146.66525257 C-85.07836953 148.63352947 -87.06262644 150.60191675 -89.046875 152.5703125 C-97.20983847 160.66768567 -105.37892557 168.75856245 -113.57324219 176.82421875 C-119.58832879 182.74498517 -125.58735411 188.6815039 -131.56809485 194.63696873 C-134.72305084 197.77736589 -137.88555532 200.90919995 -141.06788254 204.02187729 C-144.05062275 206.93961845 -147.01166336 209.8777257 -149.95744133 212.83276558 C-151.03966667 213.91092424 -152.12960992 214.98140054 -153.22774315 216.04335213 C-159.16791182 221.40550428 -159.16791182 221.40550428 -162.48320389 228.39863968 C-162.49484296 230.77513086 -162.49484296 230.77513086 -162.06583595 232.92161751 C-161.9375 234.8125 -161.9375 234.8125 -163.01566124 236.61636162 C-164.40571285 238.16676702 -165.85609505 239.52089773 -167.4375 240.875 C-167.96214844 241.35904297 -168.48679687 241.84308594 -169.02734375 242.34179688 C-170.31106169 243.52048335 -171.62170956 244.66972746 -172.9375 245.8125 C-179.20205213 240.64604465 -185.00535203 235.03125506 -190.77441406 229.32568359 C-191.89221045 228.22462462 -193.01536702 227.12898342 -194.14355469 226.03857422 C-195.78493784 224.45165127 -197.40953026 222.8491695 -199.03125 221.2421875 C-199.53942261 220.75668427 -200.04759521 220.27118103 -200.57116699 219.77096558 C-201.95898438 218.37451172 -201.95898438 218.37451172 -203.9375 215.8125 C-203.65679423 212.09382595 -201.78769141 210.29369849 -199.21740723 207.7383728 C-198.41813309 206.93641983 -197.61885895 206.13446686 -196.79536438 205.30821228 C-195.91221054 204.43741531 -195.0290567 203.56661835 -194.11914062 202.66943359 C-193.19401169 201.74547287 -192.26888275 200.82151215 -191.3157196 199.86955261 C-188.77897009 197.33621467 -186.23315577 194.81216364 -183.68577385 192.2895236 C-181.02335436 189.64957671 -178.3698155 187.00073614 -175.7154541 184.35269165 C-170.6862992 179.33802644 -165.64997192 174.33063362 -160.61067629 169.32616103 C-151.58112328 160.35853844 -142.56373444 151.37869162 -133.5490489 142.39612639 C-130.38360586 139.24253493 -127.21501532 136.0921492 -124.0437851 132.94437766 C-122.54807064 131.45914604 -121.05344861 129.97282523 -119.5592804 128.48603821 C-117.73467429 126.67064824 -115.90822052 124.85711279 -114.07963562 123.04573059 C-113.28036148 122.24941727 -112.48108734 121.45310394 -111.65759277 120.63265991 C-110.95925072 119.9391361 -110.26090866 119.2456123 -109.54140472 118.53107262 C-107.85843736 116.89047254 -107.85843736 116.89047254 -106.9375 114.8125 C-107.81535156 114.68294922 -107.81535156 114.68294922 -108.7109375 114.55078125 C-115.44694353 113.44834182 -121.92060707 111.77764185 -128.47387695 109.91137695 C-134.79235419 108.11525831 -141.13833238 106.44847743 -147.5 104.8125 C-154.92064615 102.89834039 -162.28341565 100.86333112 -169.61914062 98.64770508 C-178.30865224 96.05496889 -187.12804618 93.95337037 -195.9375 91.8125 C-194.3593378 88.0844102 -192.04039226 85.55155788 -189.28271484 82.61328125 C-188.81069138 82.10883987 -188.33866791 81.6043985 -187.8523407 81.08467102 C-183.50090281 76.45332819 -179.08597613 71.8817264 -174.65350914 67.32800293 C-171.68009941 64.27261808 -168.72933852 61.20107683 -165.82421875 58.08056641 C-163.0066719 55.05490701 -160.14226967 52.08188534 -157.23894119 49.13851929 C-156.14574506 48.01356856 -155.06988495 46.87148112 -154.01304245 45.71231079 C-150.60249288 41.98805463 -147.53158011 38.99904267 -142.9375 36.8125 C-137.97274447 36.61611304 -133.4113736 38.33391146 -128.8466177 40.110816 C-125.73543708 41.25431054 -122.55442996 41.9713723 -119.33203125 42.7421875 C-116.80433893 43.38926491 -114.27700084 44.03772743 -111.75 44.6875 C-111.08318207 44.8589151 -110.41636414 45.0303302 -109.7293396 45.2069397 C-101.36984291 47.35972726 -93.03921388 49.58834639 -84.75 52 C-77.81533598 54.01150367 -70.8665642 55.94496971 -63.875 57.75 C-63.03493408 57.97389404 -62.19486816 58.19778809 -61.3293457 58.4284668 C-60.54906006 58.62609619 -59.76877441 58.82372559 -58.96484375 59.02734375 C-57.93991821 59.29212524 -57.93991821 59.29212524 -56.89428711 59.56225586 C-54.57812052 59.85845932 -53.1218358 59.63253212 -50.9375 58.8125 C-48.95407496 56.77307931 -47.16509678 54.76017643 -45.375 52.5625 C-44.29826208 51.26946047 -43.22143739 49.97649318 -42.14453125 48.68359375 C-41.33556396 47.70302002 -41.33556396 47.70302002 -40.51025391 46.70263672 C-39.09467491 45.00139292 -37.65656159 43.32561469 -36.19921875 41.66015625 C-30.74750644 35.40731432 -25.680105 28.92210598 -20.75 22.25 C-20.14776611 21.43917969 -19.54553223 20.62835938 -18.92504883 19.79296875 C-16.32924632 16.25594151 -13.82571382 12.74626269 -11.65625 8.9296875 C-6.57337592 0.11798367 -6.57337592 0.11798367 0 0 Z " fill="#E4E4E4" transform="translate(426.9375,193.1875)"/>
<path d="M0 0 C2.34103398 3.51155097 2.51548736 4.86594832 2 9 C0.25366211 11.46786499 0.25366211 11.46786499 -2.22265625 13.90380859 C-3.14361084 14.82431 -4.06456543 15.7448114 -5.01342773 16.69320679 C-6.02946849 17.67861031 -7.0458336 18.66367949 -8.0625 19.6484375 C-9.09513542 20.66987679 -10.12644991 21.69265307 -11.15649414 22.71670532 C-13.86590223 25.40324801 -16.59284215 28.0712837 -19.32385254 30.73583984 C-22.10954643 33.46006223 -24.8782487 36.20143442 -27.6484375 38.94140625 C-33.08248813 44.31118472 -38.53517734 49.66152224 -44 55 C-42.49310674 58.52733556 -40.45153324 60.79759928 -37.7487793 63.49845886 C-36.85701996 64.39441269 -35.96526062 65.29036652 -35.04647827 66.21347046 C-34.05582141 67.19864422 -33.06506489 68.18371778 -32.07421875 69.16870117 C-31.0324246 70.21156847 -29.9910636 71.25486864 -28.95010376 72.29856873 C-26.12416642 75.1293514 -23.29202177 77.95384782 -20.45859146 80.77712798 C-17.49604668 83.73088981 -14.53877456 86.68992186 -11.58081055 89.64826965 C-6.61424322 94.61390062 -1.6438187 99.57564384 3.32910156 104.53491211 C9.08327194 110.27334432 14.83218625 116.01699916 20.57812595 121.76367205 C26.10192612 127.28808193 31.62857539 132.8096318 37.15682983 138.32958412 C39.51164008 140.68085868 41.86559453 143.03298516 44.21890259 145.38576317 C46.98752095 148.15337914 49.75866804 150.91843816 52.53181839 153.68151283 C53.55098378 154.69775052 54.56929801 155.71484263 55.58671188 156.73283386 C56.9717567 158.1183673 58.36017351 159.50052752 59.7487793 160.88249207 C60.91463814 162.04583714 60.91463814 162.04583714 62.10404968 163.23268414 C63.8862285 165.06092291 63.8862285 165.06092291 66 166 C66.25 169.3125 66.25 169.3125 66 173 C64.01177456 175.28277735 62.70237772 175.8662946 59.75239563 176.42785645 C55.60898795 175.78376892 53.4557839 173.11175086 50.64916992 170.21679688 C49.7263623 169.29508446 49.7263623 169.29508446 48.78491211 168.35475159 C46.75468834 166.32104482 44.74274572 164.27020333 42.73046875 162.21875 C41.32623219 160.80518796 39.92088752 159.39272592 38.51448059 157.98132324 C34.81592179 154.26367432 31.13262268 150.53125536 27.45227051 146.79559326 C23.69405457 142.98622929 19.92164341 139.19098141 16.15039062 135.39453125 C8.75294109 127.94345836 1.37153083 120.47670962 -6 113 C-10.30411197 115.06628264 -12.2465257 117.06646528 -15 121 C-14.67156616 123.06381575 -14.67156616 123.06381575 -14 125 C-15.90621903 128.72464991 -18.26746492 131.52326096 -21.20375061 134.47790527 C-22.06008087 135.34421066 -22.91641113 136.21051605 -23.7986908 137.10307312 C-24.7446693 138.0499473 -25.69076389 138.99670553 -26.63696289 139.94335938 C-27.63633746 140.95036101 -28.63530989 141.95776188 -29.63391113 142.9655304 C-32.34215147 145.69567227 -35.05689602 148.4192537 -37.77356267 151.14100838 C-39.47338497 152.84448029 -41.17190314 154.54924175 -42.86999321 156.25444031 C-48.80238915 162.21131851 -54.74047402 168.16246425 -60.68334961 174.10888672 C-66.20909906 179.63826742 -71.72159035 185.180628 -77.22816092 190.72910261 C-81.96677201 195.50249543 -86.71504627 200.26613321 -91.47073168 205.02251482 C-94.30622223 207.85879569 -97.13765366 210.69885217 -99.95921516 213.54899597 C-102.61660833 216.23270399 -105.2859028 218.90399485 -107.96445465 221.56657982 C-109.40221726 223.00168429 -110.82767811 224.4490811 -112.25260925 225.89692688 C-122.08198222 235.61675314 -130.76433585 239.29083542 -144.42944336 239.31689453 C-154.18767479 239.14859543 -161.85506532 235.65218056 -169 229 C-176.21344902 221.25222142 -180.12913723 211.60539538 -180 201 C-178.8554554 186.75450739 -171.64689624 177.90893541 -161.78393555 168.21630859 C-160.63928039 167.07306632 -159.49573009 165.92871693 -158.35319519 164.78335571 C-155.26963893 161.69837331 -152.17098611 158.62898021 -149.06925559 155.5622859 C-145.82247606 152.34690409 -142.58998531 149.11722041 -139.35591125 145.8890686 C-133.23910304 139.78775949 -127.1096695 133.69930118 -120.97552377 127.61542857 C-113.98860263 120.68452346 -107.01598656 113.73930214 -100.04449785 106.79287982 C-85.71212096 92.51267197 -71.36199705 78.25041366 -57 64 C-58.22007944 61.3094472 -58.22007944 61.3094472 -60 59 C-60.51331189 55.12362296 -60.34649445 53.4820308 -58.03501892 50.26638794 C-57.11459305 49.3381723 -56.19416718 48.40995667 -55.24584961 47.45361328 C-54.74015442 46.93579788 -54.23445923 46.41798248 -53.71343994 45.88447571 C-52.0413218 44.18091044 -50.34814585 42.50027955 -48.65234375 40.8203125 C-47.48003224 39.64141757 -46.3085399 38.46170753 -45.13783264 37.28121948 C-42.68185015 34.81188547 -40.21509715 32.35397327 -37.74047852 29.90332031 C-34.57290173 26.76431781 -31.43556674 23.59694323 -28.3059454 20.42015266 C-25.89310465 17.97809712 -23.46399904 15.55275201 -21.02978706 13.13201523 C-19.86631798 11.97069761 -18.70815079 10.80404267 -17.55549431 9.63199234 C-15.93994204 7.99389005 -14.30357197 6.37985193 -12.65991211 4.77001953 C-11.73391708 3.84657745 -10.80792206 2.92313538 -9.85386658 1.97171021 C-6.28680832 -0.49273758 -4.25003261 -0.63092818 0 0 Z " fill="#303030" transform="translate(189,273)"/>
<path d="M0 0 C0.70837006 0.2019397 1.41674011 0.40387939 2.14657593 0.61193848 C3.71278687 0.98512207 3.71278687 0.98512207 5.31063843 1.36584473 C6.1227478 1.63268066 6.93485718 1.8995166 7.77157593 2.17443848 C9.02841187 2.57855957 9.02841187 2.57855957 10.31063843 2.99084473 C10.9164978 3.19580566 11.52235718 3.4007666 12.14657593 3.61193848 C10.50112005 7.89112868 7.27710004 10.70389422 4.06039429 13.82995605 C3.43748001 14.44352463 2.81456573 15.0570932 2.17277527 15.68925476 C0.82163035 17.01941884 -0.53166724 18.34739903 -1.88685799 19.67344093 C-4.03154278 21.77406315 -6.16818011 23.88255403 -8.30250549 25.99369812 C-14.37084012 31.99485663 -20.44709065 37.98780264 -26.5440979 43.95983887 C-30.27455273 47.6149571 -33.99019546 51.28458333 -37.69677544 54.96390343 C-39.11106101 56.36208972 -40.53087913 57.75470281 -41.95628548 59.14155006 C-43.95040754 61.08265515 -45.92515912 63.04167493 -47.89663696 65.0057373 C-48.48834686 65.57273346 -49.08005676 66.13972961 -49.68969727 66.72390747 C-53.38053843 70.45157295 -54.84882007 73.13632047 -54.85342407 78.61193848 C-52.9784357 80.8896376 -52.9784357 80.8896376 -49.97866821 81.00769043 C-46.79034336 80.89881262 -46.79034336 80.89881262 -44.76138306 78.78845215 C-44.13046753 77.96063232 -43.499552 77.1328125 -42.84951782 76.27990723 C-31.31604126 62.28661807 -31.31604126 62.28661807 -25.25723267 61.1060791 C-19.67453424 61.42309775 -14.62364741 63.43801643 -9.49746704 65.55725098 C-5.27678255 67.24084811 -0.92048394 68.35873401 3.45907593 69.54943848 C5.20957253 70.05814941 6.95956737 70.56858988 8.70907593 71.08068848 C14.42350031 72.71932254 20.18444876 74.14054744 25.95907593 75.54943848 C38.13458956 78.52527637 50.14424261 82.006736 62.14657593 85.61193848 C60.70108069 88.92400402 58.90236748 91.10348547 56.35092163 93.64810181 C55.56013214 94.44164062 54.76934265 95.23517944 53.95458984 96.05276489 C52.65163467 97.34493423 52.65163467 97.34493423 51.32235718 98.66320801 C50.40844208 99.57741516 49.49452698 100.49162231 48.55291748 101.43353271 C46.04917562 103.93784825 43.53931572 106.43594988 41.0283165 108.93298578 C38.40180446 111.54698593 35.78096396 114.16665985 33.15951538 116.78573608 C28.19356066 121.74547469 23.22253093 126.70009423 18.24965763 131.65289485 C12.59623059 137.28399332 6.94845654 142.92074682 1.30116463 148.55799699 C-9.84171027 159.68082383 -20.99101296 170.79718125 -32.1448822 181.90898323 C-33.38215324 183.14220862 -34.6181742 184.37668861 -35.85342407 185.61193848 C-61.59342407 159.87193848 -87.33342407 134.13193848 -113.85342407 107.61193848 C-111.97244562 103.84998156 -110.55293451 102.1066933 -107.58731079 99.26159668 C-106.70654877 98.41003494 -105.82578674 97.55847321 -104.91833496 96.68110657 C-103.96621124 95.76753891 -103.01408752 94.85397125 -102.03311157 93.91271973 C-101.04839898 92.95461541 -100.06478221 91.99538365 -99.08221436 91.03507996 C-94.91718945 86.96444984 -90.74901999 82.89767898 -86.54238892 78.86999512 C-83.96578983 76.4016546 -81.41201265 73.91158838 -78.87155533 71.40608788 C-77.43369421 70.0002329 -75.97229725 68.61857972 -74.51062012 67.23750305 C-69.79618634 62.82847227 -69.79618634 62.82847227 -67.34396362 57.07432556 C-67.33736711 54.69306868 -67.33736711 54.69306868 -67.73114014 52.51580811 C-67.85342407 50.61193848 -67.85342407 50.61193848 -65.66592407 47.54553223 C-64.73779907 46.72182129 -63.80967407 45.89811035 -62.85342407 45.04943848 C-61.92529907 44.20252441 -60.99717407 43.35561035 -60.04092407 42.48303223 C-59.31904907 41.86557129 -58.59717407 41.24811035 -57.85342407 40.61193848 C-56.86342407 41.10693848 -56.86342407 41.10693848 -55.85342407 41.61193848 C-52.34246275 41.98682455 -50.52493762 42.0900932 -47.60470581 40.01072693 C-46.55074615 38.88701439 -46.55074615 38.88701439 -45.47549438 37.74060059 C-44.66735291 36.89650131 -43.85921143 36.05240204 -43.02658081 35.182724 C-42.17022034 34.26088821 -41.31385986 33.33905243 -40.43154907 32.38928223 C-39.05633607 30.96123501 -37.68108912 29.53321875 -36.30390549 28.10707188 C-32.91686293 24.5901599 -29.5633569 21.04165132 -26.2225647 17.48083496 C-24.34535 15.48244653 -22.45386769 13.49967997 -20.54550171 11.53102112 C-18.75148943 9.6778714 -16.98048587 7.80210103 -15.23605347 5.90220642 C-10.21436765 0.75694713 -7.26634065 -1.50554028 0 0 Z " fill="#B2B2B2" transform="translate(257.8534240722656,222.3880615234375)"/>
<path d="M0 0 C2.34103398 3.51155097 2.51548736 4.86594832 2 9 C0.25366211 11.46786499 0.25366211 11.46786499 -2.22265625 13.90380859 C-3.14361084 14.82431 -4.06456543 15.7448114 -5.01342773 16.69320679 C-6.02946849 17.67861031 -7.0458336 18.66367949 -8.0625 19.6484375 C-9.09513542 20.66987679 -10.12644991 21.69265307 -11.15649414 22.71670532 C-13.86590223 25.40324801 -16.59284215 28.0712837 -19.32385254 30.73583984 C-22.10954643 33.46006223 -24.8782487 36.20143442 -27.6484375 38.94140625 C-33.08248813 44.31118472 -38.53517734 49.66152224 -44 55 C-42.49310674 58.52733556 -40.45153324 60.79759928 -37.7487793 63.49845886 C-36.85701996 64.39441269 -35.96526062 65.29036652 -35.04647827 66.21347046 C-34.05582141 67.19864422 -33.06506489 68.18371778 -32.07421875 69.16870117 C-31.0324246 70.21156847 -29.9910636 71.25486864 -28.95010376 72.29856873 C-26.12416642 75.1293514 -23.29202177 77.95384782 -20.45859146 80.77712798 C-17.49604668 83.73088981 -14.53877456 86.68992186 -11.58081055 89.64826965 C-6.61424322 94.61390062 -1.6438187 99.57564384 3.32910156 104.53491211 C9.08327194 110.27334432 14.83218625 116.01699916 20.57812595 121.76367205 C26.10192612 127.28808193 31.62857539 132.8096318 37.15682983 138.32958412 C39.51164008 140.68085868 41.86559453 143.03298516 44.21890259 145.38576317 C46.98752095 148.15337914 49.75866804 150.91843816 52.53181839 153.68151283 C53.55098378 154.69775052 54.56929801 155.71484263 55.58671188 156.73283386 C56.9717567 158.1183673 58.36017351 159.50052752 59.7487793 160.88249207 C60.91463814 162.04583714 60.91463814 162.04583714 62.10404968 163.23268414 C63.8862285 165.06092291 63.8862285 165.06092291 66 166 C66.25 169.3125 66.25 169.3125 66 173 C64.01110216 175.28354937 62.70288511 175.86695651 59.75119019 176.42565918 C55.61883183 175.78630815 53.4712132 173.13545079 50.66845703 170.25195312 C50.05474243 169.64057495 49.44102783 169.02919678 48.80871582 168.39929199 C46.77953423 166.37172713 44.76876812 164.32688013 42.7578125 162.28125 C41.34785514 160.86450051 39.93685916 159.44878397 38.52487183 158.03405762 C34.80416956 154.29992569 31.09914002 150.55059534 27.39672852 146.79833984 C24.38855744 143.75493066 21.36939994 140.72255729 18.34955025 137.69074249 C14.73176667 134.05808651 11.11914996 130.42031307 7.5078125 126.78125 C6.82537601 126.09390274 6.14293953 125.40655548 5.43982315 124.69837952 C-7.10978989 112.04294298 -7.10978989 112.04294298 -12.47540283 105.7442627 C-15.38511387 102.4153175 -18.54644003 99.33151239 -21.68359375 96.21875 C-22.38396255 95.51979614 -23.08433136 94.82084229 -23.80592346 94.10070801 C-26.01408458 91.89808461 -28.22572037 89.69898919 -30.4375 87.5 C-31.94749814 85.99502492 -33.4572659 84.48981865 -34.96679688 82.984375 C-38.64187641 79.32024171 -42.32007356 75.6592652 -46 72 C-52.25970444 77.17781148 -57.9888391 82.82680094 -63.73706055 88.56005859 C-64.80530101 89.62202247 -65.87372656 90.68380019 -66.94232178 91.7454071 C-70.42733114 95.20953266 -73.90714713 98.67885146 -77.38671875 102.1484375 C-78.58985537 103.34752203 -79.79302442 104.54657403 -80.99622536 105.74559402 C-86.6456849 111.37604401 -92.29275908 117.00887296 -97.93689889 122.64465559 C-104.43667816 129.13464903 -110.94466591 135.61626423 -117.45969361 142.09094942 C-122.50809133 147.10916152 -127.54876406 152.13504994 -132.58374625 157.16672194 C-135.58585899 160.16648902 -138.59115744 163.1628881 -141.60468102 166.15119553 C-144.43791288 168.96109585 -147.26140901 171.78043011 -150.0778656 174.60714149 C-151.10956447 175.63933442 -152.1446589 176.66814694 -153.18346596 177.69318581 C-162.29387497 186.59320626 -162.29387497 186.59320626 -166.49609375 198.34375 C-166.34132471 206.68064213 -164.9906819 212.63258726 -161 220 C-160.34 220 -159.68 220 -159 220 C-158.608125 220.433125 -158.21625 220.86625 -157.8125 221.3125 C-152.2765419 226.46666788 -146.01254994 226.41724494 -138.79296875 226.69140625 C-128.70503229 224.85251361 -121.57749082 217.11880359 -114.68847656 210.04736328 C-113.70259638 209.05050536 -112.71576685 208.05458561 -111.72807312 207.05952454 C-109.62005003 204.93222784 -107.51831486 202.79898252 -105.4213028 200.66083145 C-102.10401836 197.27945185 -98.7700474 193.91485258 -95.43328857 190.55270386 C-87.15594409 182.20748234 -78.8977331 173.84339838 -70.64886475 165.47003174 C-64.22059366 158.94485089 -57.78605188 152.42617282 -51.33015609 145.92830646 C-48.01217685 142.58729794 -44.70855977 139.23289779 -41.41508436 135.86773992 C-39.36696357 133.78125505 -37.30644878 131.70736182 -35.24225807 129.63678551 C-33.83293732 128.21559008 -32.43873896 126.77944854 -31.04502869 125.34294128 C-30.20140274 124.50178268 -29.35777679 123.66062408 -28.48858643 122.79397583 C-27.76229664 122.05696001 -27.03600685 121.31994419 -26.28770828 120.56059456 C-23.32451365 118.53920684 -21.51753387 118.55584879 -18 119 C-15.625 121 -15.625 121 -14 123 C-15.25805935 127.59267973 -16.76984783 130.27200294 -20.12145996 133.63612366 C-20.98482971 134.51221786 -21.84819946 135.38831207 -22.73773193 136.29095459 C-23.69669507 137.24373598 -24.65586966 138.1963046 -25.61523438 139.14868164 C-26.62474501 140.16525465 -27.63341103 141.18266702 -28.64129639 142.20085144 C-31.37614842 144.95817988 -34.12355415 147.70266617 -36.87409782 150.44433141 C-39.17384665 152.73896182 -41.46735505 155.03977886 -43.76090097 157.34060663 C-49.17663049 162.77333207 -54.60256608 168.1957108 -60.03515625 173.61157227 C-65.62571183 179.18523378 -71.19973909 184.77503182 -76.76565313 190.37329203 C-81.55498957 195.18939669 -86.35405773 199.99564822 -91.16102839 204.7941522 C-94.02730141 207.65551378 -96.88995108 210.52026347 -99.74345398 213.39436531 C-102.4310529 216.10043312 -105.13071034 218.79388381 -107.83975983 221.47847176 C-108.82678979 222.46052789 -109.80967179 223.44677535 -110.78781891 224.43767929 C-120.17770976 233.94019071 -128.64281994 239.19179482 -142.125 239.3125 C-152.84729486 239.33294722 -161.05514828 236.39693091 -169 229 C-176.21344902 221.25222142 -180.12913723 211.60539538 -180 201 C-178.8554554 186.75450739 -171.64689624 177.90893541 -161.78393555 168.21630859 C-160.63928039 167.07306632 -159.49573009 165.92871693 -158.35319519 164.78335571 C-155.26963893 161.69837331 -152.17098611 158.62898021 -149.06925559 155.5622859 C-145.82247606 152.34690409 -142.58998531 149.11722041 -139.35591125 145.8890686 C-133.23910304 139.78775949 -127.1096695 133.69930118 -120.97552377 127.61542857 C-113.98860263 120.68452346 -107.01598656 113.73930214 -100.04449785 106.79287982 C-85.71212096 92.51267197 -71.36199705 78.25041366 -57 64 C-58.22007944 61.3094472 -58.22007944 61.3094472 -60 59 C-60.51331189 55.12362296 -60.34649445 53.4820308 -58.03501892 50.26638794 C-57.11459305 49.3381723 -56.19416718 48.40995667 -55.24584961 47.45361328 C-54.74015442 46.93579788 -54.23445923 46.41798248 -53.71343994 45.88447571 C-52.0413218 44.18091044 -50.34814585 42.50027955 -48.65234375 40.8203125 C-47.48003224 39.64141757 -46.3085399 38.46170753 -45.13783264 37.28121948 C-42.68185015 34.81188547 -40.21509715 32.35397327 -37.74047852 29.90332031 C-34.57290173 26.76431781 -31.43556674 23.59694323 -28.3059454 20.42015266 C-25.89310465 17.97809712 -23.46399904 15.55275201 -21.02978706 13.13201523 C-19.86631798 11.97069761 -18.70815079 10.80404267 -17.55549431 9.63199234 C-15.93994204 7.99389005 -14.30357197 6.37985193 -12.65991211 4.77001953 C-11.73391708 3.84657745 -10.80792206 2.92313538 -9.85386658 1.97171021 C-6.28680832 -0.49273758 -4.25003261 -0.63092818 0 0 Z " fill="#191919" transform="translate(189,273)"/>
<path d="M0 0 C1.11375 0.268125 2.2275 0.53625 3.375 0.8125 C4.8277317 3.71796341 4.5077932 6.26052735 4.5168457 9.50610352 C4.52032013 10.19419601 4.52379456 10.88228851 4.52737427 11.5912323 C4.5347344 13.08847302 4.54007841 14.58572468 4.54366493 16.0829792 C4.55083449 18.45904978 4.56650761 20.83491433 4.58500671 23.21092224 C4.63743155 29.96781469 4.6853834 36.72459832 4.70092773 43.48168945 C4.71105834 47.61449084 4.74051699 51.74677937 4.78224754 55.87937737 C4.79449772 57.44886314 4.79968981 59.01842159 4.79744911 60.58795357 C4.7866841 70.59616855 5.16893241 78.74364932 11.8125 86.75 C17.93410207 91.67714313 24.29280305 91.15829972 31.80664062 91.203125 C38.79406351 91.39297196 44.04840113 92.94186352 49.3984375 97.55859375 C49.84445312 98.11675781 50.29046875 98.67492187 50.75 99.25 C51.44222656 100.08337891 51.44222656 100.08337891 52.1484375 100.93359375 C55.02349668 105.33774492 55.62112146 109.14997732 55.6484375 114.36328125 C55.679375 116.24756836 55.679375 116.24756836 55.7109375 118.16992188 C55.73686279 120.79485715 55.75516145 123.41987943 55.765625 126.04492188 C55.91695187 134.2628117 56.25091992 140.49032 62.1640625 146.6875 C67.55485219 149.99079241 72.11280758 150.74364299 78.375 149.8125 C84.18135099 148.00396445 88.36718308 145.22751752 91.4955759 139.90655613 C92.43438179 137.67110201 92.62759815 136.15666848 92.63328552 133.74510193 C92.64352753 132.54434021 92.64352753 132.54434021 92.65397644 131.31932068 C92.65142349 130.45009476 92.64887054 129.58086884 92.64624023 128.68530273 C92.65146698 127.7629483 92.65669373 126.84059387 92.66207886 125.89028931 C92.67231367 123.88943113 92.67809836 121.88854637 92.67996025 119.88766289 C92.68362008 116.7233266 92.70033486 113.55930478 92.72071838 110.39503479 C92.77617811 101.39923942 92.8068691 92.4033982 92.83129883 83.4074707 C92.84714466 77.90442304 92.8773288 72.4015999 92.91606331 66.89866829 C92.92773619 64.79948364 92.93364386 62.7002589 92.93374443 60.60104179 C92.93393579 57.67055576 92.95215001 54.74069241 92.97436523 51.81030273 C92.96978806 50.93905258 92.96521088 50.06780243 92.960495 49.17015076 C93.03228942 43.23414579 93.03228942 43.23414579 94.74673557 41.12481785 C96.99132422 39.31576663 98.49414778 38.88276469 101.375 38.8125 C104.17218619 40.93806544 105.25262992 42.17443527 105.92089844 45.65893555 C105.9418457 46.744729 105.96279297 47.83052246 105.984375 48.94921875 C106.01660156 50.16802734 106.04882812 51.38683594 106.08203125 52.64257812 C106.09621094 53.91552734 106.11039063 55.18847656 106.125 56.5 C106.15464844 57.72267578 106.18429687 58.94535156 106.21484375 60.20507812 C106.40524372 68.89547674 106.40934975 77.58691876 106.38110352 86.27890015 C106.3743064 89.10041687 106.37582958 91.92188389 106.37695312 94.7434082 C106.37463841 100.23783569 106.33456168 105.7312284 106.27734375 111.2253418 C106.25904308 113.50067114 106.25164035 115.77611304 106.25488281 118.05151367 C106.27721846 144.02973734 106.27721846 144.02973734 97.43066406 154.00488281 C90.95656653 160.48598316 83.39767189 163.00913468 74.375 163.3125 C67.95326079 163.13081859 63.08627184 161.61194273 57.375 158.8125 C55.71288575 158.1345631 54.04728155 157.46495431 52.375 156.8125 C51.62476563 157.88886719 50.87453125 158.96523437 50.1015625 160.07421875 C38.53087346 176.61301651 26.27230614 192.35460034 12.67207909 207.28045845 C11.24404056 208.85456746 9.82339083 210.4354535 8.41442299 212.0266552 C2.17191002 219.0644234 -4.38242133 225.75175286 -11.01025391 232.42236328 C-12.23188677 233.65519958 -13.45336362 234.88819051 -14.67469788 236.12132263 C-18.64632796 240.12912326 -22.62328791 244.13160851 -26.6015625 248.1328125 C-27.28050426 248.81570013 -27.95944602 249.49858775 -28.65896177 250.20216894 C-35.06778896 256.64734093 -41.47908943 263.09004551 -47.8954258 269.52774239 C-56.07939796 277.73937802 -64.25146854 285.9624872 -72.40829718 294.20108807 C-78.1611067 300.00960525 -83.92719181 305.80473011 -89.70329416 311.59008396 C-93.1479016 315.04095109 -96.58631082 318.49751052 -100.0104866 321.96866226 C-103.22445214 325.22618803 -106.45449197 328.4668547 -109.69770622 331.69525337 C-110.88455095 332.88242744 -112.06541189 334.07561841 -113.23975945 335.27515602 C-114.84356546 336.9115348 -116.46750154 338.52489028 -118.09829712 340.13430786 C-119.00194818 341.04311266 -119.90559925 341.95191746 -120.83663368 342.8882618 C-124.36390378 345.32241395 -126.42474526 345.42710523 -130.625 344.8125 C-132.97469087 341.28796369 -133.17380597 339.96332477 -132.625 335.8125 C-130.70799923 333.16000557 -130.70799923 333.16000557 -127.96458435 330.43728638 C-127.46316282 329.93144386 -126.96174129 329.42560135 -126.44512516 328.90443027 C-124.76175979 327.21352564 -123.05786703 325.54496833 -121.35327148 323.87548828 C-120.14167468 322.66722134 -118.93140455 321.45762282 -117.72236633 320.24679565 C-114.43353796 316.96051942 -111.12660027 313.69302195 -107.81631351 310.42838144 C-104.35188884 307.00520886 -100.90485637 303.56461643 -97.45606995 300.1257019 C-90.91355622 293.6070183 -84.35633412 287.10334712 -77.79335123 280.60527885 C-68.18075636 271.0864666 -58.59011772 261.54557424 -48.99970341 252.00442314 C-47.58111317 250.59318222 -46.162516 249.18194826 -44.74391174 247.77072144 C-44.05084382 247.08120325 -43.35777589 246.39168506 -42.6437059 245.68127239 C-38.53693353 241.59653084 -34.42590063 237.51613891 -30.31093872 233.43964791 C-27.74274517 230.89496004 -25.17650117 228.34831154 -22.61053276 225.80138016 C-21.42596373 224.62661448 -20.24048225 223.452768 -19.05398941 222.27994537 C-13.53637251 216.82542848 -8.05775145 211.38402779 -3.03483677 205.4610424 C-1.08391892 203.17980612 0.98482764 201.01913467 3.05273438 198.84448242 C9.44783131 192.10480496 15.30796714 185.09704641 20.92871094 177.70458984 C22.48188498 175.67266905 24.05587985 173.65806034 25.6328125 171.64453125 C30.84936433 164.9577502 35.98866142 158.20823029 40.75 151.1875 C41.47960937 150.12273437 42.20921875 149.05796875 42.9609375 147.9609375 C44.73305314 144.01528776 44.06083629 142.04081061 43.375 137.8125 C43.2468723 135.50686187 43.15407535 133.19903241 43.09375 130.890625 C43.03767578 128.98216797 43.03767578 128.98216797 42.98046875 127.03515625 C42.92745382 125.03826042 42.8744528 123.04136393 42.82275391 121.04443359 C42.77097411 119.09722821 42.71369085 117.15017161 42.65625 115.203125 C42.62595703 114.04844727 42.59566406 112.89376953 42.56445312 111.70410156 C42.49327018 108.74476392 42.49327018 108.74476392 41.375 105.8125 C38.6916985 104.91806617 37.07059179 104.680205 34.3125 104.63671875 C20.76268535 104.28366506 11.27410419 102.89668285 0.6640625 93.8125 C-7.06787318 83.67917815 -7.3512373 73.27312655 -7.21875 61.12109375 C-7.21703536 59.44149359 -7.21710817 57.76189076 -7.21887207 56.08229065 C-7.2172301 52.58836756 -7.19872513 49.09509494 -7.16699219 45.60131836 C-7.12703939 41.1222 -7.12298572 36.64391973 -7.13045502 32.16465664 C-7.13351971 28.70826016 -7.12142673 25.25205252 -7.10432434 21.79570198 C-7.09729795 20.14307907 -7.09416937 18.4904348 -7.09501648 16.83779716 C-7.09322225 14.53787049 -7.07188329 12.23896016 -7.04492188 9.93920898 C-7.03650269 8.63193344 -7.0280835 7.3246579 -7.01940918 5.97776794 C-6.625 2.8125 -6.625 2.8125 -5.32531738 0.85536194 C-3.625 -0.1875 -3.625 -0.1875 0 0 Z " fill="#1A1919" transform="translate(396.625,83.1875)"/>
<path d="M0 0 C4.73888037 0.48888037 4.73888037 0.48888037 6.0625 1.8125 C6.18453873 3.77872149 6.2422849 5.74899115 6.2734375 7.71875 C6.30179688 8.93820313 6.33015625 10.15765625 6.359375 11.4140625 C6.4108294 13.98163693 6.45527832 16.5493628 6.4921875 19.1171875 C6.65499678 25.58885648 7.15600415 30.95973643 9.46777344 37.00952148 C10.34227572 39.66067064 10.09837504 41.24022206 9.0625 43.8125 C7.3828125 46.65234375 7.3828125 46.65234375 5.1875 49.75 C4.78966309 50.31138672 4.39182617 50.87277344 3.98193359 51.45117188 C-6.80350069 66.5099228 -18.82086886 80.65466871 -31.43798828 94.19970703 C-33.03591987 95.91835504 -34.62555449 97.64445278 -36.21484375 99.37109375 C-39.14231961 102.54647748 -42.10689973 105.68491051 -45.07861328 108.81884766 C-47.01407551 110.89462709 -48.89513536 113.01262778 -50.77734375 115.13671875 C-52.05873734 116.52971241 -53.34125839 117.92166992 -54.625 119.3125 C-55.19379883 119.97805908 -55.76259766 120.64361816 -56.34863281 121.3293457 C-58.86973307 123.99847321 -60.65649064 125.65670156 -64.37646484 126.10913086 C-71.80598215 125.62430395 -79.05476605 123.39703947 -86.1875 121.375 C-87.31929688 121.06240234 -88.45109375 120.74980469 -89.6171875 120.42773438 C-95.06565343 118.91887935 -100.50418065 117.3749719 -105.9375 115.8125 C-101.83980677 110.92353882 -97.58329748 106.33302673 -93.04296875 101.85546875 C-92.09373283 100.91191277 -92.09373283 100.91191277 -91.12532043 99.94929504 C-89.12764914 97.9637244 -87.12674193 95.98146624 -85.125 94 C-82.46980276 91.37134526 -79.81790395 88.73942679 -77.16796875 86.10546875 C-76.55761276 85.5034111 -75.94725677 84.90135345 -75.31840515 84.28105164 C-72.25078407 81.33515023 -72.25078407 81.33515023 -69.9375 77.8125 C-71.1853125 77.54050781 -72.433125 77.26851563 -73.71875 76.98828125 C-87.06383628 74.01952084 -100.33883276 70.68666984 -113.41943359 66.70996094 C-121.60076536 64.25614844 -129.90419691 62.28169689 -138.1953125 60.23828125 C-145.13574499 58.52557274 -152.04038639 56.69152134 -158.9375 54.8125 C-155.58179122 47.64787455 -149.79140968 40.84541477 -142.9375 36.8125 C-138.00900207 36.37012619 -134.15543868 38.06329314 -129.65820312 39.84179688 C-124.48768642 41.68655409 -119.12014242 42.86961656 -113.79431152 44.1802063 C-110.38749771 45.02560348 -106.99026834 45.90724074 -103.59375 46.79296875 C-102.60118195 47.05176064 -102.60118195 47.05176064 -101.58856201 47.31578064 C-95.95092569 48.79393282 -90.34588802 50.37193928 -84.75 52 C-77.81533598 54.01150367 -70.8665642 55.94496971 -63.875 57.75 C-63.03493408 57.97389404 -62.19486816 58.19778809 -61.3293457 58.4284668 C-60.54906006 58.62609619 -59.76877441 58.82372559 -58.96484375 59.02734375 C-58.28156006 59.20386475 -57.59827637 59.38038574 -56.89428711 59.56225586 C-54.57812052 59.85845932 -53.1218358 59.63253212 -50.9375 58.8125 C-48.95407496 56.77307931 -47.16509678 54.76017643 -45.375 52.5625 C-44.29826208 51.26946047 -43.22143739 49.97649318 -42.14453125 48.68359375 C-41.60521973 48.02987793 -41.0659082 47.37616211 -40.51025391 46.70263672 C-39.09467491 45.00139292 -37.65656159 43.32561469 -36.19921875 41.66015625 C-30.74750644 35.40731432 -25.680105 28.92210598 -20.75 22.25 C-20.14776611 21.43917969 -19.54553223 20.62835938 -18.92504883 19.79296875 C-16.32924632 16.25594151 -13.82571382 12.74626269 -11.65625 8.9296875 C-6.57337592 0.11798367 -6.57337592 0.11798367 0 0 Z " fill="#E5E5E5" transform="translate(426.9375,193.1875)"/>
<path d="M0 0 C17.05756009 10.58129661 27.34685414 36.3976733 32 55 C38.92874229 85.25597085 38.92874229 85.25597085 35.9375 91.0625 C32.76026699 92.59987081 30.32611047 91.8466463 27 91 C24.88996095 87.83494142 24.4965405 86.06071133 23.88671875 82.36328125 C23.69360107 81.23647949 23.5004834 80.10967773 23.30151367 78.94873047 C23.09888916 77.74877441 22.89626465 76.54881836 22.6875 75.3125 C18.98169085 54.54631938 13.256855 31.61796399 -2 16 C-5.03378618 15.68443741 -5.03378618 15.68443741 -6.96228677 17.59659529 C-7.71429807 18.35299819 -8.46630937 19.10940108 -9.24110889 19.88872528 C-10.54556657 21.18977353 -10.54556657 21.18977353 -11.87637693 22.51710558 C-12.84217661 23.49561163 -13.80784341 24.47424884 -14.77339172 25.45300293 C-15.79812983 26.48072694 -16.82353658 27.50778461 -17.84955662 28.5342288 C-20.67693536 31.36656231 -23.49486488 34.20813978 -26.31144702 37.05120444 C-29.34694458 40.11191893 -32.39113291 43.16396603 -35.43441772 46.2169342 C-40.70997728 51.51141757 -45.98034452 56.81102418 -51.24758339 62.11378479 C-58.86671829 69.78376175 -66.49690512 77.44266946 -74.1304573 85.09829491 C-86.51862233 97.52232739 -98.90227786 109.95084226 -111.28100586 122.38427734 C-112.02239857 123.12894042 -112.76379128 123.8736035 -113.52765044 124.64083213 C-124.05002297 135.21004056 -134.56790855 145.78370297 -145.08399256 156.35916787 C-145.8244757 157.10383095 -146.56495884 157.84849403 -147.32788086 158.61572266 C-148.06746217 159.35948456 -148.80704348 160.10324645 -149.56903634 160.86954659 C-161.89124809 173.26080995 -174.22498435 185.6405274 -186.5682742 198.01079416 C-194.18672085 205.64682438 -201.79521893 213.29251071 -209.39132645 220.95076478 C-214.59546719 226.19596361 -219.81031509 231.43035276 -225.03380934 236.65627801 C-228.04985889 239.67444426 -231.0607006 242.69738167 -234.05866432 245.73352242 C-236.80139542 248.51099645 -239.55751191 251.274404 -242.32508626 254.02711779 C-243.32566493 255.02724124 -244.32113377 256.03250754 -245.31098584 257.04324859 C-246.65388661 258.41301753 -248.01714051 259.76274453 -249.38136768 261.11127472 C-250.51011522 262.24587907 -250.51011522 262.24587907 -251.66166574 263.40340471 C-254.66580796 265.45460816 -256.43024117 265.45322788 -260 265 C-260.99 264.34 -261.98 263.68 -263 263 C-263.51583727 259.0719444 -263.55280575 256.84976229 -261.36657518 253.48913103 C-260.59270245 252.71412184 -259.81882973 251.93911265 -259.02150631 251.14061832 C-258.13407393 250.23493172 -257.24664156 249.32924511 -256.33231729 248.39611346 C-255.33131304 247.41024325 -254.32998 246.42470679 -253.32835388 245.43946838 C-252.27590456 244.37895398 -251.22498618 243.31691845 -250.17547375 242.25349754 C-247.28583456 239.33459397 -244.37471258 236.43797659 -241.45960796 233.54453528 C-238.3200775 230.42081854 -235.20072884 227.27705983 -232.07875061 224.13581848 C-225.95907403 217.98498319 -219.82058287 211.85326186 -213.67518234 205.72813869 C-208.68192521 200.75067759 -203.69552703 195.76644156 -198.71397591 190.77726555 C-198.00550449 190.0677215 -197.29703307 189.35817745 -196.56709282 188.62713207 C-195.12796526 187.18576647 -193.68885343 185.74438515 -192.24975718 184.30298828 C-178.74825599 170.78151681 -165.22536523 157.28160102 -151.69509358 143.78892725 C-140.08100337 132.20611221 -128.48538929 120.60506622 -116.90307617 108.99047852 C-103.45931849 95.50927693 -90.00429915 82.03948268 -76.53105599 68.58774418 C-75.09493412 67.1538522 -73.65882688 65.71994556 -72.22273445 64.28602409 C-71.16279359 63.22770312 -71.16279359 63.22770312 -70.08143977 62.14800193 C-65.09790159 57.17051273 -60.12254278 52.18493639 -55.15026665 47.19619942 C-49.09210096 41.11841999 -43.02166 35.05323285 -36.93504309 29.00394107 C-33.82865279 25.91597295 -30.72817006 22.82262617 -27.64254379 19.71389771 C-24.81910976 16.86964509 -21.98009953 14.04198911 -19.12764908 11.22684585 C-18.09720373 10.20423691 -17.07265057 9.17565003 -16.05461746 8.14068372 C-14.67235222 6.73719939 -13.26640405 5.35715735 -11.85938168 3.97849369 C-10.69686788 2.8176846 -10.69686788 2.8176846 -9.51086897 1.63342482 C-6.16619918 -0.54242216 -3.91486313 -0.40781448 0 0 Z " fill="#191919" transform="translate(462,0)"/>
<path d="M0 0 C1.98755995 0.73589562 3.90760949 1.54140228 5.83154297 2.43005371 C8.37739811 3.54582757 10.97726705 4.11508988 13.6875 4.703125 C24.16606345 7.27887659 34.57544072 9.99856245 44.93334961 13.02416992 C51.83865232 15.02812638 58.78644515 16.80693144 65.78027344 18.47485352 C71.16438104 19.7766368 76.38491218 21.3819403 81.61328125 23.2109375 C80.26610047 26.1904676 78.75518593 28.35018462 76.49975586 30.71020508 C75.86827133 31.37381546 75.2367868 32.03742584 74.58616638 32.72114563 C71.6851784 35.71149674 68.78052404 38.69774784 65.85766602 41.66674805 C64.32136352 43.23621868 62.79587691 44.81635101 61.28149414 46.40698242 C59.09181798 48.70622576 56.87099236 50.97075962 54.640625 53.23046875 C53.97151596 53.94491653 53.30240692 54.65936432 52.61302185 55.39546204 C47.89193641 60.07537152 47.89193641 60.07537152 44.28277588 60.45802307 C41.97264017 60.22773952 39.85390368 59.81038473 37.61328125 59.2109375 C36.7301123 59.02313721 35.84694336 58.83533691 34.93701172 58.6418457 C34.20885254 58.43390381 33.48069336 58.22596191 32.73046875 58.01171875 C31.88508545 57.77509521 31.03970215 57.53847168 30.16870117 57.29467773 C29.2841626 57.04016846 28.39962402 56.78565918 27.48828125 56.5234375 C25.54463211 55.97787792 23.60060882 55.4336499 21.65625 54.890625 C20.66157715 54.61186523 19.6669043 54.33310547 18.64208984 54.04589844 C13.71056831 52.6864108 8.75527099 51.42111248 3.80078125 50.1484375 C-3.53664099 48.25510684 -10.81565713 46.23655914 -18.06933594 44.04589844 C-26.75846154 41.45307348 -35.57760337 39.35172562 -44.38671875 37.2109375 C-43.03162782 34.23302892 -41.48866033 31.99106029 -39.29248047 29.57226562 C-38.34911331 28.53229431 -38.34911331 28.53229431 -37.38668823 27.47131348 C-34.48082914 24.34250008 -31.54515283 21.24381141 -28.58837891 18.16308594 C-27.04187491 16.53317134 -25.51547454 14.88393513 -24.01025391 13.21582031 C-9.43959703 -2.90286911 -9.43959703 -2.90286911 0 0 Z " fill="#E5E5E5" transform="translate(275.38671875,247.7890625)"/>
<path d="M0 0 C7.16625905 4.72043685 12.23680957 11.52803914 14 20 C14.27399148 23.89219076 14.27727294 27.78668975 14.3125 31.6875 C14.34150391 32.73873047 14.37050781 33.78996094 14.40039062 34.87304688 C14.4825816 45.03311587 11.7005155 51.86903668 4.79296875 59.27734375 C-1.91455597 65.72182828 -9.85225551 68.07708773 -19 68 C-29.82082646 66.57767487 -36.54591436 62.06903553 -43.67578125 54.1015625 C-50.20635404 43.73740864 -50.02607317 28.48009882 -47.52685547 16.78613281 C-44.89915349 8.63268717 -38.94664155 2.55335118 -31.46484375 -1.30859375 C-20.84213855 -5.72580498 -10.21547336 -5.31204615 0 0 Z " fill="#1A1819" transform="translate(488,254)"/>
<path d="M0 0 C12.55168966 14.58412956 16.23808022 35.56311854 19.21337891 53.94824219 C19.40335449 55.07520508 19.59333008 56.20216797 19.7890625 57.36328125 C19.95100098 58.37688721 20.11293945 59.39049316 20.27978516 60.43481445 C21.06034527 63.21493142 21.71383299 64.28347018 24 66 C24.99 66.33 25.98 66.66 27 67 C27.495 71.95 27.495 71.95 28 77 C29.32 77.33 30.64 77.66 32 78 C34 80 34 80 34.1953125 82.8203125 C34.17210937 83.91085938 34.14890625 85.00140625 34.125 86.125 C34.10695313 87.22070312 34.08890625 88.31640625 34.0703125 89.4453125 C34.04710937 90.28835937 34.02390625 91.13140625 34 92 C31.525 92.99 31.525 92.99 29 94 C29 95.32 29 96.64 29 98 C28.18663681 98.39355682 27.37327362 98.78711365 26.53526306 99.19259644 C25.28030785 100.0872612 25.28030785 100.0872612 24 101 C23.51687978 104.15171101 23.36987909 106.76599158 23.43579102 109.91845703 C23.43494507 110.83102768 23.43409912 111.74359833 23.43322754 112.68382263 C23.43440332 114.6678235 23.44698793 116.65184251 23.46954536 118.63571548 C23.5041604 121.78090464 23.50700172 124.92468008 23.50120544 128.07003784 C23.49289186 135.88640001 23.53434063 143.70230845 23.58410645 151.51849365 C23.62533039 158.11444429 23.64278507 164.70955991 23.62675285 171.30562973 C23.62887202 174.39540848 23.66597469 177.48351474 23.70399475 180.57302856 C23.75982138 197.41092972 23.75982138 197.41092972 18.54673767 203.59371948 C13.22292393 208.4340849 7.70201192 209.49585393 0.66796875 209.40234375 C-4.13103582 208.67862857 -7.5506513 206.33016389 -11 203 C-12.80710408 200.47480982 -14.23919237 198.02388796 -15 195 C-14.67 194.01 -14.34 193.02 -14 192 C-12.50260417 193.26953125 -11.00520833 194.5390625 -9.5078125 195.80859375 C-5.52245821 198.95764313 -0.8605453 198.55841216 4 198 C7.92993478 195.44554239 8.72313993 192.38116275 10 188 C10.27924461 185.91880416 10.48337381 183.82657571 10.62402344 181.73144531 C10.70670471 180.51334167 10.78938599 179.29523804 10.87457275 178.04022217 C10.9520575 176.7327301 11.02954224 175.42523804 11.109375 174.078125 C11.15124687 173.39894264 11.19311874 172.71976028 11.23625946 172.01999664 C12.17662687 156.60058427 12.31395712 141.19593908 12.25 125.75 C12.24633228 124.36606903 12.24286597 122.98213752 12.23959351 121.59820557 C12.16509808 93.93851928 11.21961494 66.69959904 7.625 39.25 C7.52603424 38.48540466 7.42706848 37.72080933 7.32510376 36.93304443 C6.12675332 27.85656037 4.43800563 19.15371721 1.88037109 10.35839844 C0.97743106 6.91390507 0.43843606 3.53106633 0 0 Z " fill="#9D0022" transform="translate(467,25)"/>
<path d="M0 0 C0.00364563 1.20554535 0.00729126 2.4110907 0.01104736 3.65316772 C0.04806429 15.04050908 0.10591033 26.42758169 0.18390274 37.81471825 C0.22333229 43.6683193 0.2555431 49.52177093 0.27099609 55.37548828 C0.28619223 61.02965392 0.32069084 66.68340864 0.36830902 72.3373909 C0.38309224 74.4893905 0.39103925 76.64144878 0.39188385 78.79349899 C0.39426443 81.81899047 0.42143239 84.84335635 0.45410156 87.86865234 C0.4490712 88.74907196 0.44404083 89.62949158 0.43885803 90.53659058 C0.57988487 99.03433807 3.12330188 106.70353773 9 113 C3.15716755 112.64227556 -0.82970557 111.23238318 -5 107 C-8.7829837 101.13694671 -10.12261989 95.82526899 -10.20532227 88.86645508 C-10.21522186 88.14425278 -10.22512146 87.42205048 -10.23532104 86.67796326 C-10.26689759 84.29185255 -10.29167822 81.90572194 -10.31640625 79.51953125 C-10.3369791 77.86471541 -10.35797566 76.20990479 -10.37937927 74.55509949 C-10.43456575 70.20024847 -10.48399013 65.84535029 -10.53222656 61.49041748 C-10.58246658 57.04630335 -10.63813959 52.60225768 -10.69335938 48.15820312 C-10.80089908 39.43885997 -10.90235335 30.71945953 -11 22 C-14.41656024 21.83322718 -14.41656024 21.83322718 -18 22 C-20.8867906 24.8867906 -20.27354373 26.96982219 -20.30639648 31.01318359 C-20.31472 31.7354715 -20.32304352 32.4577594 -20.33161926 33.20193481 C-20.35579687 35.60082344 -20.36450576 37.99943975 -20.37109375 40.3984375 C-20.38006253 42.07077108 -20.38918442 43.74310384 -20.39845276 45.41543579 C-20.41497209 48.93111111 -20.42264675 52.44669097 -20.42553711 55.96240234 C-20.43088808 60.43883921 -20.46841721 64.91435942 -20.51428127 69.39053917 C-20.54424505 72.8515639 -20.55126501 76.31237454 -20.55226326 79.77351761 C-20.55643653 81.42154714 -20.56875287 83.06957905 -20.58978081 84.71747971 C-20.71738046 95.59401797 -20.32959165 105.71710204 -12.91673279 114.4559021 C-4.88055533 122.50138854 3.92892765 124.18064271 14.875 124.4375 C16.10645752 124.42384399 16.10645752 124.42384399 17.36279297 124.40991211 C18.54059326 124.42163452 18.54059326 124.42163452 19.7421875 124.43359375 C20.4419873 124.42384521 21.14178711 124.41409668 21.86279297 124.40405273 C25.30244288 125.36317833 26.81707074 127.24124762 29 130 C29.64355469 133.11865234 29.64355469 133.11865234 29.671875 136.5859375 C29.69636719 137.84664062 29.72085938 139.10734375 29.74609375 140.40625 C29.74738281 141.7159375 29.74867188 143.025625 29.75 144.375 C29.78335192 146.96618768 29.81971532 149.55733869 29.859375 152.1484375 C29.86420898 153.29489746 29.86904297 154.44135742 29.87402344 155.62255859 C29.94183265 159.08068018 29.94183265 159.08068018 30.55737305 162.78979492 C31.21071462 167.52823308 29.59637609 169.14477489 27 173 C21.52383589 164.78575384 21.48488318 156.06633208 21.3125 146.4375 C21.27833984 145.14263672 21.24417969 143.84777344 21.20898438 142.51367188 C21.12707308 139.34253456 21.05773603 136.17165406 21 133 C19.76765625 132.98582031 18.5353125 132.97164062 17.265625 132.95703125 C3.95982017 132.6406431 -8.09755074 130.77440035 -18 121 C-27.01904261 110.34443756 -28.65571022 99.429653 -29.49609375 85.91796875 C-29.54401754 85.14787664 -29.59194134 84.37778454 -29.64131737 83.58435631 C-29.98532502 77.78796857 -30.23257132 71.99033336 -30.4375 66.1875 C-30.48479374 64.92383984 -30.48479374 64.92383984 -30.53304291 63.63465118 C-31.80564911 27.23580639 -31.80564911 27.23580639 -21.00956726 14.75230408 C-6.54950458 0 -6.54950458 0 0 0 Z " fill="#7E7E7E" transform="translate(411,62)"/>
<path d="M0 0 C1.8125 1.125 1.8125 1.125 3 3 C3.45222807 6.702533 3.40291723 8.42458455 1.23637962 11.51866722 C0.40349733 12.35381166 -0.42938496 13.18895611 -1.2875061 14.04940796 C-1.74879768 14.52005948 -2.21008925 14.990711 -2.68535936 15.47562468 C-4.23280271 17.04697627 -5.80078307 18.59603436 -7.36962891 20.14599609 C-8.48428191 21.26878028 -9.59765467 22.39283668 -10.70983887 23.51806641 C-13.73337468 26.56896474 -16.77559553 29.60056688 -19.82232714 32.62828016 C-23.00759379 35.79836175 -26.17820125 38.98305002 -29.35116577 42.16543579 C-34.6821806 47.50736815 -40.02572555 52.83652132 -45.37646484 58.15869141 C-51.56348461 64.31305739 -57.72859169 70.48874135 -63.88275969 76.67594469 C-69.16605288 81.98646093 -74.46094337 87.28520078 -79.76571214 92.57426512 C-82.93450073 95.73369689 -86.09908964 98.89704875 -89.25328445 102.07105637 C-92.21930413 105.05440146 -95.1996044 108.02269883 -98.19158936 110.97999573 C-99.28760782 112.06807684 -100.37854538 113.16130337 -101.46397018 114.25995255 C-102.94607519 115.75844164 -104.44540661 117.2372424 -105.95059204 118.7124939 C-106.78573648 119.54537619 -107.62088093 120.37825848 -108.48133278 121.23637962 C-111.5756721 123.40309694 -113.297159 123.44132466 -117 123 C-118.9375 121.9375 -118.9375 121.9375 -120 120 C-119.89580638 113.32264086 -117.39548201 110.54564442 -112.85961914 106.14672852 C-112.21895004 105.50197067 -111.57828094 104.85721283 -110.91819763 104.19291687 C-108.80472865 102.07344936 -106.67060916 99.9762036 -104.53515625 97.87890625 C-103.06047606 96.41034289 -101.58697589 94.94059371 -100.11460876 93.4697113 C-97.03082224 90.3951191 -93.93748861 87.33059879 -90.83618164 84.27368164 C-86.8531022 80.34731536 -82.88772231 76.40366136 -78.92844486 72.45330906 C-75.88836281 69.42152135 -72.84265953 66.39543876 -69.79482841 63.37144279 C-68.3302087 61.91824557 -66.86654031 60.46408892 -65.40382576 59.00897408 C-63.36432535 56.98315698 -61.31821265 54.96428465 -59.26977539 52.94750977 C-58.66138824 52.34135834 -58.0530011 51.73520691 -57.42617798 51.11068726 C-53.22938713 47 -53.22938713 47 -51 47 C-50.75132675 46.42633698 -50.5026535 45.85267395 -50.2464447 45.2616272 C-48.81260905 42.65998614 -47.15947413 40.91236292 -45.05688477 38.81396484 C-43.84035973 37.59282486 -43.84035973 37.59282486 -42.59925842 36.34701538 C-41.72216721 35.47710968 -40.84507599 34.60720398 -39.94140625 33.7109375 C-38.59126686 32.36148544 -38.59126686 32.36148544 -37.21385193 30.98477173 C-35.31049656 29.08443676 -33.40537037 27.18611563 -31.49682617 25.29101562 C-29.05270579 22.86389658 -26.61523172 20.43023492 -24.17997837 17.99422264 C-21.85324495 15.66782674 -19.52227141 13.34569265 -17.19140625 11.0234375 C-16.31633926 10.14948334 -15.44127228 9.27552917 -14.53968811 8.37509155 C-13.31843483 7.16340805 -13.31843483 7.16340805 -12.07250977 5.92724609 C-10.99901024 4.85946426 -10.99901024 4.85946426 -9.90382385 3.77011108 C-6.58729874 0.6865181 -4.51668591 -0.56458574 0 0 Z " fill="#1F1F1F" transform="translate(322,181)"/>
<path d="M0 0 C1.98 1.65 3.96 3.3 6 5 C5.43468159 8.83424653 3.78941101 10.5854269 1.08576965 13.28845215 C0.24323639 14.13799973 -0.59929687 14.9875473 -1.46736145 15.86283875 C-2.3987645 16.78659805 -3.33016754 17.71035736 -4.28979492 18.66210938 C-5.27589921 19.65064185 -6.26135718 20.6398194 -7.24621582 21.6295929 C-9.92346294 24.31625198 -12.6100412 26.99339753 -15.29864287 29.66868782 C-18.11267661 32.47140452 -20.91899213 35.28183049 -23.72639465 38.09118652 C-28.44496994 42.81064506 -33.16949312 47.52408393 -37.89770508 52.23388672 C-43.3577065 57.6727507 -48.80885987 63.12035734 -54.25517768 68.57292128 C-59.4985084 73.8219566 -64.74750869 79.06528539 -69.99929237 84.30586243 C-72.23174559 86.53368104 -74.46231521 88.76336054 -76.69139671 90.99455261 C-79.32069821 93.62574443 -81.95497586 96.25185361 -84.5931015 98.87419701 C-86.01702532 100.29188586 -87.43609503 101.714445 -88.85499573 103.13716125 C-93.03338204 107.28099008 -96.98723276 110.92105564 -102 114 C-110.7226426 123.48046084 -111.60331465 134.29920159 -111.17578125 146.51953125 C-111.11777344 147.66808594 -111.05976562 148.81664062 -111 150 C-114.45783802 148.84738733 -114.80618466 148.19468242 -116.625 145.1875 C-117.05039063 144.50042969 -117.47578125 143.81335938 -117.9140625 143.10546875 C-120.00686614 139.04783867 -120.21036399 135.28698919 -120.3125 130.75 C-120.34988281 129.67234375 -120.38726562 128.5946875 -120.42578125 127.484375 C-119.1915324 117.38391648 -111.76662642 111.21794684 -104.89746094 104.44335938 C-103.75316858 103.30019669 -102.60975904 102.15614975 -101.46716309 101.0112915 C-98.37721529 97.92020032 -95.27512805 94.84156173 -92.17064953 91.76507378 C-88.92301323 88.54251378 -85.68676901 85.30855382 -82.44927979 82.07580566 C-76.32336026 75.96229761 -70.18731981 69.8590541 -64.04754281 63.75946665 C-57.05538886 56.81208729 -50.07464647 49.85328938 -43.09482145 42.89352703 C-28.74250858 28.58297704 -14.37598344 14.28676843 0 0 Z " fill="#7E7E7E" transform="translate(142,344)"/>
<path d="M0 0 C3.45036442 0.92588395 6.65499793 2.04399174 9.96240234 3.37402344 C14.5339942 5.05018035 19.3051217 6.01424924 24.0390625 7.125 C32.64226179 9.24773562 41.16662828 11.57887003 49.67163086 14.06323242 C56.57693357 16.06718888 63.5247264 17.84599394 70.51855469 19.51391602 C75.90266229 20.8156993 81.12319343 22.4210028 86.3515625 24.25 C83.32890322 30.56578933 79.22618527 35.46552079 73.3515625 39.25 C68.68596785 39.55289168 64.76047549 38.40888798 60.39794922 36.93212891 C57.64488445 36.01444065 54.85351308 35.28034378 52.05078125 34.53125 C49.79158558 33.9213073 47.54242626 33.28158853 45.29296875 32.63671875 C39.81557633 31.08113485 34.30337211 29.66796533 28.7890625 28.25 C21.27401409 26.31133175 13.81223377 24.25925512 6.38427734 22.01049805 C0.75660391 20.3224706 -4.92113187 18.89558769 -10.65014648 17.59326172 C-15.43481154 16.46362596 -15.43481154 16.46362596 -17.6484375 14.25 C-7.12532886 0.48824523 -7.12532886 0.48824523 0 0 Z " fill="#B3B3B3" transform="translate(270.6484375,246.75)"/>
<path d="M0 0 C4.41797747 2.48290334 8.87232022 6.28760626 10.36376953 11.28442383 C12.05226573 19.38608216 12.7682596 30.67816335 8.3125 37.875 C4.3228833 42.54350253 0.19613439 44.92378033 -5.86328125 45.84375 C-11.67286774 46.16516557 -15.78721786 45.35942482 -20.53125 41.9375 C-24.2884853 38.53472086 -26.92945982 34.47169662 -27.36450195 29.35620117 C-27.43097741 26.77901911 -27.47235994 24.20289672 -27.5 21.625 C-27.52900391 20.73490234 -27.55800781 19.84480469 -27.58789062 18.92773438 C-27.65325414 12.14501239 -26.19488366 8.52249356 -21.37109375 3.57421875 C-20.79488281 3.09597656 -20.21867187 2.61773437 -19.625 2.125 C-19.04621094 1.63386719 -18.46742188 1.14273437 -17.87109375 0.63671875 C-12.72789623 -3.02676533 -5.53715143 -2.49171814 0 0 Z " fill="#CB103A" transform="translate(479.1875,263.5625)"/>
<path d="M0 0 C0.70837006 0.2019397 1.41674011 0.40387939 2.14657593 0.61193848 C3.71278687 0.98512207 3.71278687 0.98512207 5.31063843 1.36584473 C6.1227478 1.63268066 6.93485718 1.8995166 7.77157593 2.17443848 C9.02841187 2.57855957 9.02841187 2.57855957 10.31063843 2.99084473 C10.9164978 3.19580566 11.52235718 3.4007666 12.14657593 3.61193848 C10.5801479 7.3326771 8.28148326 9.78461505 5.4883728 12.67175293 C5.01646515 13.16162186 4.5445575 13.65149078 4.05834961 14.15620422 C2.50030745 15.76880202 0.93411303 17.37307573 -0.63467407 18.97521973 C-1.17198654 19.5244277 -1.70929901 20.07363567 -2.26289368 20.63948631 C-5.1075768 23.54337737 -7.95989274 26.4395563 -10.81729126 29.33093262 C-13.1760308 31.72084744 -15.5179854 34.12551787 -17.84658813 36.5447998 C-20.66449759 39.47234881 -23.50859644 42.37184433 -26.37342834 45.25346947 C-27.45769595 46.35298115 -28.53257109 47.46184086 -29.59745789 48.58013344 C-37.90487164 57.28068988 -37.90487164 57.28068988 -42.64807129 58.08702087 C-45.22504982 57.86167425 -47.3939726 57.39648805 -49.85342407 56.61193848 C-50.676138 56.40361389 -51.49885193 56.19528931 -52.34649658 55.98065186 C-54.58592619 55.41107339 -56.77563932 54.74659642 -58.97842407 54.04943848 C-60.12697876 53.69849121 -60.12697876 53.69849121 -61.29873657 53.3404541 C-63.15287441 52.77262439 -65.00355085 52.19351115 -66.85342407 51.61193848 C-65.4449769 48.39669543 -63.74997622 46.2900998 -61.22842407 43.86193848 C-60.28096313 42.94154785 -60.28096313 42.94154785 -59.31436157 42.00256348 C-58.59119751 41.3142041 -58.59119751 41.3142041 -57.85342407 40.61193848 C-57.19342407 40.94193848 -56.53342407 41.27193848 -55.85342407 41.61193848 C-52.34246275 41.98682455 -50.52493762 42.0900932 -47.60470581 40.01072693 C-46.90206604 39.26158524 -46.19942627 38.51244354 -45.47549438 37.74060059 C-44.66735291 36.89650131 -43.85921143 36.05240204 -43.02658081 35.182724 C-42.17022034 34.26088821 -41.31385986 33.33905243 -40.43154907 32.38928223 C-39.05633607 30.96123501 -37.68108912 29.53321875 -36.30390549 28.10707188 C-32.91686293 24.5901599 -29.5633569 21.04165132 -26.2225647 17.48083496 C-24.34535 15.48244653 -22.45386769 13.49967997 -20.54550171 11.53102112 C-18.75148943 9.6778714 -16.98048587 7.80210103 -15.23605347 5.90220642 C-10.21436765 0.75694713 -7.26634065 -1.50554028 0 0 Z " fill="#E3E3E3" transform="translate(257.8534240722656,222.3880615234375)"/>
<path d="M0 0 C3.46150783 0.90035074 6.54689761 2.01411834 9.81835938 3.42529297 C14.57090929 5.27598953 19.57510034 6.32539351 24.51953125 7.54296875 C26.49587696 8.0531054 28.47121846 8.56715574 30.4453125 9.0859375 C31.29134033 9.30660889 32.13736816 9.52728027 33.0090332 9.75463867 C34.75784576 10.2326824 36.48709402 10.78215634 38.20703125 11.35546875 C35.84042788 16.6929628 31.75578369 20.49359374 27.76953125 24.66796875 C27.01220703 25.51681641 26.25488281 26.36566406 25.47460938 27.24023438 C19.8562226 33.07562013 19.8562226 33.07562013 15.62158203 33.79418945 C12.69084682 33.59665673 10.055369 33.07399178 7.20703125 32.35546875 C6.15265869 32.11111084 5.09828613 31.86675293 4.01196289 31.61499023 C0.63814131 30.78375164 -2.70010134 29.8656292 -6.04296875 28.91796875 C-7.17476563 28.60537109 -8.3065625 28.29277344 -9.47265625 27.97070312 C-14.92112218 26.4618481 -20.3596494 24.91794065 -25.79296875 23.35546875 C-24.39155845 21.72336475 -22.98954829 20.09177298 -21.58496094 18.46240234 C-20.39208655 17.05988109 -19.21544639 15.64338595 -18.05566406 14.21337891 C-6.95515491 0.65182193 -6.95515491 0.65182193 0 0 Z " fill="#FDFDFD" transform="translate(346.79296875,285.64453125)"/>
<path d="M0 0 C0.00364563 1.20554535 0.00729126 2.4110907 0.01104736 3.65316772 C0.04806429 15.04050908 0.10591033 26.42758169 0.18390274 37.81471825 C0.22333229 43.6683193 0.2555431 49.52177093 0.27099609 55.37548828 C0.28619223 61.02965392 0.32069084 66.68340864 0.36830902 72.3373909 C0.38309224 74.4893905 0.39103925 76.64144878 0.39188385 78.79349899 C0.39426443 81.81899047 0.42143239 84.84335635 0.45410156 87.86865234 C0.4490712 88.74907196 0.44404083 89.62949158 0.43885803 90.53659058 C0.57988487 99.03433807 3.12330188 106.70353773 9 113 C3.15716755 112.64227556 -0.82970557 111.23238318 -5 107 C-8.7829837 101.13694671 -10.12261989 95.82526899 -10.20532227 88.86645508 C-10.21522186 88.14425278 -10.22512146 87.42205048 -10.23532104 86.67796326 C-10.26689759 84.29185255 -10.29167822 81.90572194 -10.31640625 79.51953125 C-10.3369791 77.86471541 -10.35797566 76.20990479 -10.37937927 74.55509949 C-10.43456575 70.20024847 -10.48399013 65.84535029 -10.53222656 61.49041748 C-10.58246658 57.04630335 -10.63813959 52.60225768 -10.69335938 48.15820312 C-10.80089908 39.43885997 -10.90235335 30.71945953 -11 22 C-12.32 21.67 -13.64 21.34 -15 21 C-15.48830672 17.58185297 -15.71557428 15.04331 -13.70361328 12.10986328 C-11.8937493 10.16930108 -10.01685986 8.35732028 -8.0625 6.5625 C-7.40314453 5.92634766 -6.74378906 5.29019531 -6.06445312 4.63476562 C-1.2106438 0 -1.2106438 0 0 0 Z " fill="#DE778E" transform="translate(411,62)"/>
<path d="M0 0 C2.58611518 0.72085001 5.16871257 1.44998931 7.75 2.1875 C9.08443595 2.56060998 10.41907042 2.93301068 11.75390625 3.3046875 C21.41364169 6.01932084 21.41364169 6.01932084 23.75 7.1875 C22.19182816 10.83734816 19.93875601 13.3560954 17.25 16.25 C14.84463269 18.84670335 12.71595796 21.23856306 10.75 24.1875 C2.65699798 23.80257719 -4.93454375 21.89203734 -12.71191406 19.74902344 C-14.77199598 19.18143977 -16.83483865 18.62495952 -18.8984375 18.0703125 C-28.9016315 15.36168425 -28.9016315 15.36168425 -31.25 14.1875 C-29.50313638 9.99710692 -26.68609119 6.77448942 -23.75 3.375 C-23.27046875 2.76462891 -22.7909375 2.15425781 -22.296875 1.52539062 C-15.91026055 -5.77477305 -8.36648477 -2.16054592 0 0 Z " fill="#FDFDFD" transform="translate(390.25,257.8125)"/>
<path d="M0 0 C3.8702365 0.46409688 7.35837564 1.30148115 11.0859375 2.4375 C12.94025391 2.994375 12.94025391 2.994375 14.83203125 3.5625 C15.76144531 3.85125 16.69085938 4.14 17.6484375 4.4375 C13.32656166 9.52829854 8.96647791 14.56555669 4.3984375 19.4375 C3.49158203 20.47583984 3.49158203 20.47583984 2.56640625 21.53515625 C-1.93189941 26.25884675 -1.93189941 26.25884675 -5.74365234 26.73852539 C-8.37652006 26.52621379 -10.78903683 26.07516324 -13.3515625 25.4375 C-14.13982422 25.24655762 -14.92808594 25.05561523 -15.74023438 24.85888672 C-18.00825852 24.25635279 -20.23942435 23.58303043 -22.4765625 22.875 C-23.24226562 22.64103516 -24.00796875 22.40707031 -24.796875 22.16601562 C-26.65101284 21.59818591 -28.50168928 21.01907267 -30.3515625 20.4375 C-28.94311532 17.22225695 -27.24811464 15.11566132 -24.7265625 12.6875 C-23.77910156 11.76710938 -23.77910156 11.76710938 -22.8125 10.828125 C-22.08933594 10.13976562 -22.08933594 10.13976562 -21.3515625 9.4375 C-20.6915625 9.7675 -20.0315625 10.0975 -19.3515625 10.4375 C-16.47585509 10.93841091 -16.47585509 10.93841091 -13.3515625 10.4375 C-10.58784351 8.04540937 -8.38340849 5.40161237 -6.01171875 2.625 C-3.3515625 0.4375 -3.3515625 0.4375 0 0 Z " fill="#E3E3E3" transform="translate(221.3515625,253.5625)"/>
<path d="M0 0 C4.74317767 4.37831785 6.01962093 6.93594839 6.30859375 13.23046875 C6.88511892 29.47635851 6.88511892 29.47635851 1.82421875 35.3984375 C-3.73514197 40.2792467 -8.90130396 41.73519095 -16.30859375 41.45703125 C-20.55089629 40.73664025 -23.88750139 38.96428439 -27 36 C-28.21484375 33.828125 -28.21484375 33.828125 -29 32 C-27.98292969 31.97873047 -27.98292969 31.97873047 -26.9453125 31.95703125 C-19.78960453 31.59032599 -13.82840493 30.35092466 -8 26 C-2.94652023 20.05291711 -0.87078534 15.07469361 -0.4375 7.375 C-0.39431641 6.66859375 -0.35113281 5.9621875 -0.30664062 5.234375 C-0.20055249 3.48981463 -0.09977111 1.74493303 0 0 Z " fill="#9D0022" transform="translate(484,268)"/>
<path d="M0 0 C-1.4732183 1.71967201 -2.94697079 3.43886147 -4.42285156 5.15625 C-5.64448834 6.58439257 -6.85245113 8.02423786 -8.0546875 9.46875 C-9.9287839 11.56001637 -11.72105623 13.35481964 -14 15 C-17.38254212 15.17199367 -18.87705678 14.92914013 -22 14 C-24.33217106 13.47398673 -26.66558187 12.9534494 -29 12.4375 C-31.00094063 11.9622766 -33.00127261 11.48444764 -35 11 C-33.64621589 9.36851659 -32.277816 7.74784926 -30.85546875 6.17578125 C-28.9176817 4.00231994 -28.9176817 4.00231994 -27.30078125 1.35546875 C-19.90551742 -8.6498882 -10.06054562 -3.57595457 0 0 Z " fill="#B2B2B2" transform="translate(254,243)"/>
<path d="M0 0 C0.75925781 -0.03996094 1.51851563 -0.07992187 2.30078125 -0.12109375 C5.90746196 0.72302301 7.34849604 2.62549269 9.6875 5.4375 C10.33105469 8.55615234 10.33105469 8.55615234 10.359375 12.0234375 C10.38386719 13.28414062 10.40835937 14.54484375 10.43359375 15.84375 C10.43488281 17.1534375 10.43617188 18.463125 10.4375 19.8125 C10.47085192 22.40368768 10.50721532 24.99483869 10.546875 27.5859375 C10.55170898 28.73239746 10.55654297 29.87885742 10.56152344 31.06005859 C10.62933265 34.51818018 10.62933265 34.51818018 11.24487305 38.22729492 C11.89821462 42.96573308 10.28387609 44.58227489 7.6875 48.4375 C2.21133589 40.22325384 2.17238318 31.50383208 2 21.875 C1.94875977 19.93270508 1.94875977 19.93270508 1.89648438 17.95117188 C1.81457308 14.78003456 1.74523603 11.60915406 1.6875 8.4375 C-1.6125 8.1075 -4.9125 7.7775 -8.3125 7.4375 C-6.50542142 2.53257241 -5.47517138 0.15643347 0 0 Z " fill="#B1B1B1" transform="translate(430.3125,186.5625)"/>
<path d="M0 0 C1.62890625 1.1484375 1.62890625 1.1484375 3 3 C3.3984375 5.84765625 3.3984375 5.84765625 3.375 9.0625 C3.38273437 10.12597656 3.39046875 11.18945312 3.3984375 12.28515625 C3.26695312 13.18105469 3.13546875 14.07695313 3 15 C0 17 0 17 -3.5625 16.8125 C-7 16 -7 16 -9 13 C-9.68360626 8.68374184 -9.74514066 5.1315099 -7.3125 1.4375 C-4.54815528 -0.28087645 -3.19625513 -0.57368682 0 0 Z " fill="#1C1819" transform="translate(498,102)"/>
<path d="M0 0 C1.8125 1.125 1.8125 1.125 3 3 C3.5625 5.875 3.5625 5.875 3 9 C0.24253592 11.94984529 -1.69549997 13.72696511 -5.6875 14.5625 C-8 14 -8 14 -9.875 12.375 C-11.43384258 9.0841101 -11.14430565 7.43291694 -10 4 C-6.87946583 0.70610282 -4.57335455 -0.84246005 0 0 Z " fill="#1F1F1F" transform="translate(344,159)"/>
<path d="M0 0 C3.5 0.25 3.5 0.25 5.5 2.25 C5.8125 5.75 5.8125 5.75 5.5 9.25 C2.26746204 11.40502531 1.24849077 11.71856135 -2.5 11.25 C-4.3125 10.125 -4.3125 10.125 -5.5 8.25 C-5.8125 5.1875 -5.8125 5.1875 -5.5 2.25 C-3.5 0.25 -3.5 0.25 0 0 Z " fill="#F7F7F7" transform="translate(51.5,464.75)"/>
<path d="M0 0 C0 1.98 0 3.96 0 6 C-0.86625 6.391875 -1.7325 6.78375 -2.625 7.1875 C-6.25871505 9.13893957 -8.91700883 11.28403159 -12 14 C-12.66 13.67 -13.32 13.34 -14 13 C-11.85714108 10.83031809 -9.71091768 8.66416525 -7.5625 6.5 C-6.64500977 5.56994141 -6.64500977 5.56994141 -5.70898438 4.62109375 C-5.12568359 4.03457031 -4.54238281 3.44804688 -3.94140625 2.84375 C-3.13231812 2.02680664 -3.13231812 2.02680664 -2.30688477 1.19335938 C-1 0 -1 0 0 0 Z " fill="#7D7174" transform="translate(396,77)"/>
</svg>
